<svg width="40" height="40" viewBox="0 0 40 40" fill="none" xmlns="http://www.w3.org/2000/svg">
<path d="M35.5565 0C36.7353 0 37.8657 0.468252 38.6992 1.30175C39.5327 2.13524 40.001 3.2657 40.001 4.44444V35.5556C40.001 36.7343 39.5327 37.8648 38.6992 38.6983C37.8657 39.5317 36.7353 40 35.5565 40H4.44542C3.26668 40 2.13622 39.5317 1.30272 38.6983C0.469229 37.8648 0.000976563 36.7343 0.000976562 35.5556V4.44444C0.000976562 3.2657 0.469229 2.13524 1.30272 1.30175C2.13622 0.468252 3.26668 0 4.44542 0H35.5565ZM34.4454 34.4444V22.6667C34.4454 20.7453 33.6822 18.9027 32.3236 17.5441C30.965 16.1855 29.1223 15.4222 27.201 15.4222C25.3121 15.4222 23.1121 16.5778 22.0454 18.3111V15.8444H15.8454V34.4444H22.0454V23.4889C22.0454 21.7778 23.4232 20.3778 25.1343 20.3778C25.9594 20.3778 26.7508 20.7056 27.3342 21.289C27.9176 21.8724 28.2454 22.6638 28.2454 23.4889V34.4444H34.4454ZM8.6232 12.3556C9.61334 12.3556 10.5629 11.9622 11.2631 11.2621C11.9632 10.562 12.3565 9.61236 12.3565 8.62222C12.3565 6.55556 10.6899 4.86667 8.6232 4.86667C7.62716 4.86667 6.67192 5.26234 5.96762 5.96664C5.26332 6.67095 4.86764 7.62619 4.86764 8.62222C4.86764 10.6889 6.55653 12.3556 8.6232 12.3556ZM11.7121 34.4444V15.8444H5.55653V34.4444H11.7121Z" fill="#FBFFFC"/>
</svg>
