<svg width="40" height="40" viewBox="0 0 41 40" fill="none" xmlns="http://www.w3.org/2000/svg">
<path d="M40.9688 31.8782C40.9688 36.3452 37.314 40 32.8469 40H9.09058C4.62353 40 0.96875 36.3452 0.96875 31.8782V8.12183C0.96875 3.65487 4.62353 0 9.09058 0H32.8469C37.314 0 40.9688 3.65487 40.9688 8.12183V31.8782Z" fill="white"/>
<path d="M23.963 18.0058L33.5847 6.01367H30.7978L22.5699 16.2693L14.3413 6.01367H5.1543L17.976 21.9945L8.35343 33.9876H11.1404L19.3691 23.7311L27.5986 33.9876H36.7856L23.963 18.0058ZM9.68473 8.1875H13.2978L32.2543 31.8136H28.6413L9.68473 8.1875Z" fill="black"/>
</svg>
