<svg width="42" height="51" viewBox="0 0 42 51" fill="none" xmlns="http://www.w3.org/2000/svg">
<path d="M16.4871 45.2607L15.2591 40.1759C20.1498 39.0377 26.8824 36.2086 30.9051 32.4491C34.5466 29.0426 36.5537 24.7637 36.5537 20.4017C36.5537 12.1722 29.7279 5.47555 21.3396 5.47555C12.9514 5.47555 6.12558 12.1722 6.12558 20.4017C6.12558 25.8397 9.05998 30.7417 13.8406 33.3921C16.5336 32.7731 25.1125 30.3096 28.2671 23.4427H23.0503V18.2208H35.0209L34.4704 21.2866C33.3822 27.3269 29.4273 32.2704 23.0292 35.5813C18.3841 37.9867 14.0523 38.6929 13.8702 38.722L13.0318 38.8549L12.2696 38.4852C5.19826 35.0621 0.802979 28.137 0.802979 20.4017C0.802979 9.2933 10.017 0.253662 21.3396 0.253662C32.6623 0.253662 41.8763 9.2933 41.8763 20.4017C41.8763 26.2052 39.2849 31.8259 34.5763 36.2294C29.5077 40.9694 21.6615 44.056 16.4828 45.2607H16.4871Z" fill="#57FFC1"/>
<path d="M27.5159 43.2131C28.5491 46.0962 27.0077 49.2534 24.0691 50.2671C21.1304 51.2807 17.9123 49.7685 16.8792 46.8855" fill="#57FFC1"/>
</svg>
