<svg width="24" height="24" viewBox="0 0 24 24" fill="none" xmlns="http://www.w3.org/2000/svg">
<g clip-path="url(#clip0_19_1158)">
<path d="M14.2244 14.0115C14.1209 14.1045 13.9694 14.241 13.9694 14.475C13.9694 14.718 14.1299 14.9625 14.4194 15.159C15.7349 16.0785 18.2009 15.969 18.3074 15.966H18.3104C19.3109 15.966 20.2904 15.696 21.1514 15.1875C22.0172 14.6807 22.7356 13.9565 23.2355 13.0867C23.7353 12.217 23.9994 11.2317 24.0014 10.2285C24.0284 8.2545 23.3414 6.9015 23.0024 6.2325L22.9424 6.1125C20.9459 2.2305 16.6604 0 12.0014 0C9.53168 3.50677e-06 7.12208 0.762054 5.10145 2.18216C3.08081 3.60227 1.54757 5.61127 0.710938 7.935C2.23344 6.072 4.77594 4.893 7.50144 4.893C11.7464 4.893 15.0164 7.7205 15.0164 12.0885H15.0104V12.0915C15.0104 12.5985 14.7584 13.3395 14.2799 13.9575L14.2889 13.9485L14.2244 14.0115Z" fill="#FBFFFC"/>
<path d="M0.0159993 11.6295C-0.0338783 13.5128 0.352705 15.382 1.1455 17.091C2.03333 18.9812 3.39907 20.607 5.10772 21.8077C6.81638 23.0083 8.80878 23.7423 10.888 23.937C10.4798 23.7831 10.0858 23.5939 9.7105 23.3715H9.6955L9.5155 23.259C8.59942 22.6877 7.80439 21.9421 7.1755 21.0645C6.45966 20.0848 5.96693 18.9603 5.73188 17.7699C5.49684 16.5795 5.52518 15.3521 5.81493 14.1739C6.10467 12.9956 6.64879 11.895 7.40908 10.9494C8.16938 10.0038 9.12744 9.23603 10.216 8.70003L10.231 8.69403L10.2685 8.67603C10.5805 8.52903 11.1985 8.23803 12.019 8.24853C12.213 8.24953 12.405 8.26603 12.595 8.29803C12.1546 7.87529 11.6524 7.52223 11.1055 7.25103L11.0905 7.24353C9.523 6.42303 7.7995 6.39453 7.501 6.39453C3.841 6.39453 0.264999 8.84553 0.0159993 11.6295ZM15.4105 23.4975C15.5435 23.4575 15.676 23.4155 15.808 23.3715C15.655 23.4185 15.5015 23.4615 15.3475 23.5005L15.4105 23.4975Z" fill="#FBFFFC"/>
<path d="M15.3427 23.5009C15.4955 23.4627 15.6471 23.4197 15.7972 23.3719L15.9202 23.3344C18.503 22.4414 20.7048 20.6957 22.1632 18.3844C22.2054 18.3142 22.2236 18.2321 22.2148 18.1506C22.2059 18.0692 22.1707 17.9928 22.1144 17.9333C22.0581 17.8738 21.9838 17.8343 21.903 17.821C21.8221 17.8076 21.7391 17.8211 21.6667 17.8594C21.3447 18.0274 21.0132 18.1744 20.6722 18.3004C19.5956 18.7001 18.456 18.9033 17.3077 18.9004C12.8722 18.9004 9.00966 15.8539 9.00966 11.9344C9.01266 11.7314 9.03566 11.5319 9.07866 11.3359C7.92521 12.4847 7.22143 14.0086 7.09485 15.6316C6.96827 17.2546 7.42726 18.8692 8.38866 20.1829L8.39316 20.1904C8.86566 20.8519 9.45366 21.4219 10.1302 21.8719H10.1347L10.3507 22.0069C11.6662 22.8319 12.9322 23.6239 15.3427 23.5009Z" fill="#FBFFFC"/>
</g>
<defs>
<clipPath id="clip0_19_1158">
<rect width="24" height="24" fill="white" transform="translate(0.000976562)"/>
</clipPath>
</defs>
</svg>
