<svg width="21" height="21" viewBox="0 0 21 21" fill="none" xmlns="http://www.w3.org/2000/svg">
<path d="M8.5986 19.0426C4.68124 18.1746 1.75 14.6799 1.75 10.5C1.75 8.90576 2.17612 7.41126 2.92162 6.12326L6.66923 12.6149C7.09036 13.3779 7.72978 13.9978 8.50552 14.395C9.28126 14.7922 10.158 14.9487 11.0232 14.8444L8.5986 19.0426ZM10.5 19.25L14.2511 12.7531C14.6596 12.0726 14.8752 11.2937 14.8749 10.5C14.8762 9.55318 14.5691 8.63171 13.9999 7.87501H18.8492C19.1155 8.72452 19.2507 9.60972 19.2499 10.5C19.2499 15.3326 15.3326 19.25 10.5 19.25ZM12.7505 11.8519C12.5152 12.2436 12.1817 12.5671 11.783 12.7905C11.3843 13.0138 10.9343 13.1291 10.4773 13.1252C10.0204 13.1212 9.5724 12.998 9.17768 12.7678C8.78295 12.5376 8.45516 12.2083 8.22672 11.8125L8.20135 11.7688C7.97977 11.3672 7.86726 10.9147 7.87501 10.4561C7.88276 9.99757 8.01051 9.54906 8.24553 9.15525C8.48055 8.76145 8.81464 8.43608 9.21453 8.21156C9.61442 7.98705 10.0662 7.87122 10.5247 7.8756C10.9833 7.87999 11.4328 8.00445 11.8283 8.23658C12.2238 8.4687 12.5516 8.8004 12.779 9.19864C13.0065 9.59687 13.1256 10.0477 13.1246 10.5064C13.1236 10.965 13.0024 11.4153 12.7732 11.8125L12.7505 11.8519ZM4.05299 4.58413C4.87162 3.68962 5.86774 2.97558 6.97778 2.4876C8.08782 1.99962 9.2874 1.74842 10.5 1.75001C12.0362 1.74974 13.5454 2.15392 14.8758 2.9219C16.2063 3.68989 17.3111 4.79462 18.0792 6.12501H10.5C9.64292 6.12471 8.80466 6.37615 8.08926 6.8481C7.37387 7.32006 6.81285 7.99174 6.47585 8.77976L4.05299 4.58413Z" fill="#0A0B0A"/>
</svg>
