<svg width="28" height="28" viewBox="0 0 28 28" fill="none" xmlns="http://www.w3.org/2000/svg">
<path d="M11.3933 25.7156C6.02096 24.5252 2.00098 19.7324 2.00098 14C2.00098 11.8136 2.58537 9.76401 3.60777 7.99761L8.74734 16.9004C9.32489 17.9468 10.2018 18.7969 11.2657 19.3417C12.3295 19.8865 13.5319 20.1011 14.7185 19.958L11.3933 25.7156ZM14.0009 26L19.1453 17.09C19.7055 16.1567 20.0013 15.0885 20.0009 14C20.0026 12.7015 19.5814 11.4378 18.8009 10.4H25.4513C25.8165 11.5651 26.0019 12.779 26.0009 14C26.0009 20.6276 20.6285 26 14.0009 26ZM17.0873 15.854C16.7646 16.3912 16.3073 16.8349 15.7605 17.1412C15.2138 17.4475 14.5965 17.6057 13.9699 17.6002C13.3432 17.5948 12.7288 17.4258 12.1875 17.1101C11.6462 16.7944 11.1966 16.3428 10.8833 15.8L10.8485 15.74C10.5447 15.1893 10.3904 14.5687 10.401 13.9398C10.4116 13.311 10.5868 12.6959 10.9091 12.1558C11.2314 11.6157 11.6896 11.1695 12.238 10.8616C12.7865 10.5537 13.406 10.3948 14.0349 10.4008C14.6638 10.4068 15.2802 10.5775 15.8226 10.8959C16.365 11.2142 16.8146 11.6691 17.1265 12.2153C17.4384 12.7614 17.6018 13.3798 17.6004 14.0087C17.599 14.6377 17.4329 15.2553 17.1185 15.8L17.0873 15.854ZM5.15936 5.88681C6.28205 4.66004 7.64816 3.6808 9.1705 3.01157C10.6928 2.34234 12.338 1.99783 14.0009 2.00001C16.1077 1.99964 18.1775 2.55394 20.0021 3.60718C21.8267 4.66042 23.3419 6.17547 24.3953 8.00001H14.0009C12.8255 7.9996 11.6759 8.34443 10.6948 8.99168C9.7137 9.63893 8.9443 10.5601 8.48214 11.6408L5.15936 5.88681Z" fill="#FBFFFC"/>
</svg>
