<svg width="24" height="24" viewBox="0 0 24 24" fill="none" xmlns="http://www.w3.org/2000/svg">
<g clip-path="url(#clip0_19_1167)">
<path d="M6.10504 5.97882C6.10879 5.97929 6.11254 5.97929 6.10504 5.97882V5.97882ZM22.5779 8.1046C22.0805 6.90929 21.0741 5.62023 20.2838 5.21101C20.9269 6.47148 21.2996 7.73663 21.4416 8.67976C21.4419 8.68622 21.4426 8.69263 21.444 8.69898C20.1511 5.47632 17.9587 4.17694 16.1682 1.34757C15.4654 0.237101 15.6561 0.164914 15.555 0.191633L15.5494 0.194914C13.3599 1.41146 12.0181 3.86851 11.6785 5.94835C10.8996 5.98934 10.1363 6.18262 9.43176 6.51727C9.3684 6.54607 9.31675 6.59561 9.28535 6.65773C9.25396 6.71984 9.24469 6.7908 9.25907 6.8589C9.26816 6.89823 9.2854 6.93521 9.30967 6.96747C9.33394 6.99972 9.36471 7.02653 9.39998 7.04616C9.43525 7.0658 9.47424 7.07782 9.51444 7.08145C9.55464 7.08508 9.59515 7.08025 9.63337 7.06726L9.65774 7.05741C10.3843 6.71504 11.1763 6.53402 11.9795 6.52679C14.9245 6.50012 16.5337 8.59041 17.0242 9.44663C16.4148 9.01772 15.3202 8.59398 14.267 8.77726C18.3798 10.8332 17.2763 17.8961 11.5768 17.646C8.78943 17.5237 7.02665 15.2563 6.86446 13.3898C6.86446 13.3898 7.39181 11.4233 10.6435 11.4233C10.9951 11.4233 11.9996 10.4427 12.0184 10.1577C12.0142 10.064 10.0245 9.27291 9.24853 8.50866C8.83382 8.10024 8.63671 7.90365 8.46243 7.75585C8.36813 7.6758 8.26938 7.60115 8.16665 7.53226C7.90588 6.62023 7.89469 5.65493 8.13426 4.7371C6.95957 5.27194 6.04598 6.11757 5.38223 6.86382H5.3766C4.92332 6.2896 4.95473 4.39585 4.98145 4.00069C4.97582 3.97585 4.64263 4.17263 4.59941 4.20273C4.19789 4.48643 3.82376 4.80704 3.48191 5.16038C2.71827 5.93851 1.41323 7.51135 0.880352 9.90554C0.667727 10.861 0.563477 11.9878 0.563477 12.3571C0.563477 18.6712 5.6827 23.7894 11.9972 23.7894C17.6522 23.7894 22.4512 19.7007 23.2674 14.2916C23.8098 10.6965 22.5779 8.14782 22.5779 8.1046Z" fill="#FBFFFC"/>
</g>
<defs>
<clipPath id="clip0_19_1167">
<rect width="24" height="24" fill="white" transform="translate(0.000976562)"/>
</clipPath>
</defs>
</svg>
