<svg width="20" height="20" viewBox="0 0 20 20" fill="none" xmlns="http://www.w3.org/2000/svg">
<path d="M0.918945 10.0001C0.918945 15.0157 4.9846 19.0813 10.0001 19.0813C15.0157 19.0813 19.0813 15.0157 19.0813 10.0001C19.0813 4.9846 15.0157 0.918945 10.0001 0.918945C4.9846 0.918945 0.918945 4.9846 0.918945 10.0001Z" stroke="#0A0B0A" stroke-width="1.39487" stroke-linecap="round" stroke-linejoin="round"/>
<path d="M10.9084 0.963867C10.9084 0.963867 13.6328 4.55094 13.6328 9.99966C13.6328 15.4484 10.9084 19.0355 10.9084 19.0355M9.09217 19.0355C9.09217 19.0355 6.36781 15.4484 6.36781 9.99966C6.36781 4.55094 9.09217 0.963867 9.09217 0.963867M1.49121 13.1781H18.5094M1.49121 6.82124H18.5094" stroke="#0A0B0A" stroke-width="1.39487" stroke-linecap="round" stroke-linejoin="round"/>
</svg>
