<svg width="110" height="32" viewBox="0 0 110 32" fill="none" xmlns="http://www.w3.org/2000/svg">
<path d="M4.806 2.21213C4.806 3.52695 3.79187 4.48866 2.38606 4.48866C0.980253 4.48866 0 3.52695 0 2.21213C0 0.897315 1.04589 0 2.38606 0C3.79187 0 4.806 0.930549 4.806 2.21213ZM0.556813 7.9533H4.2513V25.5922H0.556813V7.9533Z" fill="#57FFC1"/>
<path d="M24.714 14.4653V25.5945H21.0195V15.2026C21.0195 12.4774 19.8106 11.0339 17.0964 11.0339C13.9249 11.0339 12.2248 13.0549 12.2248 16.4531V25.5945H8.53027V7.95555H12.2248V10.8739C13.4993 8.82172 15.4281 7.57129 18.2397 7.57129C22.2941 7.57129 24.7119 10.1698 24.7119 14.4673L24.714 14.4653Z" fill="#57FFC1"/>
<path d="M27.9834 19.9159H31.7435C32.2982 21.8725 33.7697 22.7698 36.8756 22.7698C39.2616 22.7698 40.7331 22.0636 40.7331 20.7488C40.7331 19.274 39.033 19.0497 36.0266 18.3435C30.9919 17.1242 28.8684 16.1314 28.8684 13.1798C28.8684 9.61958 31.9404 7.56738 36.4521 7.56738C40.9638 7.56738 43.6442 9.71513 44.2984 12.9222H40.5722C40.0492 11.4786 38.6752 10.7745 36.3886 10.7745C34.1021 10.7745 32.5967 11.5762 32.5967 12.7955C32.5967 13.9171 33.7083 14.2059 36.8459 14.9432C41.7176 16.0649 44.5271 16.8999 44.5271 20.3313C44.5271 24.1158 41.0612 25.9748 36.8121 25.9748C32.0717 25.9748 28.6715 23.7295 27.9855 19.9138L27.9834 19.9159Z" fill="#57FFC1"/>
<path d="M52.2054 2.21213C52.2054 3.52695 51.1913 4.48866 49.7855 4.48866C48.3797 4.48866 47.3994 3.52695 47.3994 2.21213C47.3994 0.897315 48.4453 0 49.7855 0C51.1913 0 52.2054 0.930549 52.2054 2.21213ZM47.9562 7.9533H51.6507V25.5922H47.9562V7.9533Z" fill="#57FFC1"/>
<path d="M92.9551 14.4651V25.5943H89.2606V15.2025C89.2606 12.4773 88.0178 11.0337 85.3057 11.0337C82.168 11.0337 80.4679 13.0547 80.4679 16.4529V25.5943H76.7734V0.899414H80.4679V10.8405C81.7425 8.78832 83.7051 7.56906 86.4828 7.56906C90.5034 7.56906 92.9551 10.1675 92.9551 14.4651Z" fill="#57FFC1"/>
<path d="M109.996 24.6948C109.016 25.2722 106.924 25.9785 104.864 25.9785C101.17 25.9785 98.2945 23.7019 98.2945 18.8269V11.3534H94.96V7.95319H98.2945V3.94434L101.989 3.14258V7.95319H109.378V11.3534H101.989V18.6337C101.989 21.199 103.198 22.6114 105.52 22.6114C106.664 22.6114 107.938 22.2272 109.346 21.7453L110 24.6948H109.996Z" fill="#57FFC1"/>
<path d="M61.9133 29.3395L61.2994 26.7971C63.7447 26.2279 67.111 24.8134 69.1223 22.9336C70.9431 21.2304 71.9467 19.091 71.9467 16.91C71.9467 12.7952 68.5338 9.44688 64.3396 9.44688C60.1455 9.44688 56.7326 12.7952 56.7326 16.91C56.7326 19.6289 58.1998 22.0799 60.5901 23.4051C61.9366 23.0957 66.226 21.8639 67.8033 18.4304H65.195V15.8195H71.1802L70.905 17.3524C70.3609 20.3725 68.3834 22.8443 65.1844 24.4998C62.8618 25.7024 60.6959 26.0555 60.6049 26.0701L60.1857 26.1366L59.8046 25.9517C56.2689 24.2401 54.0713 20.7776 54.0713 16.91C54.0713 11.3558 58.6783 6.83594 64.3396 6.83594C70.001 6.83594 74.608 11.3558 74.608 16.91C74.608 19.8117 73.3122 22.6221 70.9579 24.8238C68.4237 27.1938 64.5005 28.7371 61.9112 29.3395H61.9133Z" fill="#57FFC1"/>
<path d="M67.4277 28.3154C67.9443 29.757 67.1737 31.3356 65.7043 31.8424C64.235 32.3492 62.626 31.5931 62.1094 30.1516" fill="#57FFC1"/>
</svg>
