<svg width="40" height="40" viewBox="0 0 40 40" fill="none" xmlns="http://www.w3.org/2000/svg">
<path d="M20.001 13C18.1445 13 16.364 13.7375 15.0512 15.0503C13.7385 16.363 13.001 18.1435 13.001 20C13.001 21.8565 13.7385 23.637 15.0512 24.9497C16.364 26.2625 18.1445 27 20.001 27C21.8575 27 23.638 26.2625 24.9507 24.9497C26.2635 23.637 27.001 21.8565 27.001 20C27.001 18.1435 26.2635 16.363 24.9507 15.0503C23.638 13.7375 21.8575 13 20.001 13Z" fill="white"/>
<path fill-rule="evenodd" clip-rule="evenodd" d="M8.62156 0.627333C16.1847 -0.209111 23.8173 -0.209111 31.3805 0.627333C35.5124 1.08784 38.8435 4.33525 39.3287 8.47543C40.225 16.1317 40.225 23.8661 39.3287 31.5223C38.8435 35.6625 35.5124 38.9099 31.3827 39.3725C23.8188 40.2091 16.1855 40.2091 8.62156 39.3725C4.4897 38.9099 1.15854 35.6625 0.673331 31.5245C-0.223141 23.8675 -0.223141 16.1324 0.673331 8.47543C1.15854 4.33525 4.4897 1.08784 8.62156 0.627333ZM30.8801 6.96576C30.303 6.96576 29.7496 7.19462 29.3416 7.60198C28.9335 8.00934 28.7043 8.56184 28.7043 9.13794C28.7043 9.71404 28.9335 10.2665 29.3416 10.6739C29.7496 11.0813 30.303 11.3101 30.8801 11.3101C31.4571 11.3101 32.0106 11.0813 32.4186 10.6739C32.8267 10.2665 33.0559 9.71404 33.0559 9.13794C33.0559 8.56184 32.8267 8.00934 32.4186 7.60198C32.0106 7.19462 31.4571 6.96576 30.8801 6.96576ZM9.66595 19.9989C9.66595 17.2624 10.7548 14.638 12.693 12.703C14.6312 10.768 17.26 9.68099 20.001 9.68099C22.7421 9.68099 25.3708 10.768 27.3091 12.703C29.2473 14.638 30.3361 17.2624 30.3361 19.9989C30.3361 22.7353 29.2473 25.3597 27.3091 27.2947C25.3708 29.2297 22.7421 30.3167 20.001 30.3167C17.26 30.3167 14.6312 29.2297 12.693 27.2947C10.7548 25.3597 9.66595 22.7353 9.66595 19.9989Z" fill="#FBFFFC"/>
</svg>
