<svg width="60" height="40" viewBox="0 0 60 40" fill="none" xmlns="http://www.w3.org/2000/svg">
<g clip-path="url(#clip0_26_34)">
<path fill-rule="evenodd" clip-rule="evenodd" d="M41.1297 19.7842V25.2909C41.0626 24.9064 40.9489 24.5541 40.7887 24.2337C40.4531 23.5624 39.9405 23.0499 39.2511 22.6961C38.5707 22.3423 37.7361 22.1654 36.7473 22.1654C35.8492 22.1654 35.0554 22.3197 34.366 22.6281C33.6857 22.9274 33.1504 23.3674 32.7604 23.948C32.5588 24.2503 32.4106 24.5894 32.3157 24.9653C32.2637 24.4677 32.1527 24.0425 31.9825 23.6894C31.7376 23.1724 31.3837 22.7914 30.9211 22.5464C30.4676 22.2924 29.9232 22.1654 29.2882 22.1654C28.6804 22.1654 28.1407 22.2788 27.6689 22.5056C27.1972 22.7234 26.8117 23.1044 26.5123 23.6486H26.3762C26.1495 23.1406 25.8138 22.7687 25.3693 22.5329C24.9248 22.2879 24.4032 22.1654 23.8045 22.1654C23.2421 22.1654 22.7476 22.2697 22.3213 22.4784C21.904 22.6871 21.5774 22.9909 21.3416 23.3901H21.2055L21.0694 22.3015H18.1982V29.7039H21.2055V25.8939C21.2055 25.6126 21.2599 25.3632 21.3687 25.1454C21.4776 24.9187 21.6319 24.7417 21.8314 24.6147C22.0401 24.4787 22.2941 24.4106 22.5934 24.4106C22.92 24.4106 23.1695 24.4832 23.3418 24.6284C23.5142 24.7644 23.6276 24.9549 23.682 25.1999C23.7455 25.4357 23.7772 25.7079 23.7772 26.0163V29.7039H26.7709V25.8939C26.7709 25.6036 26.8253 25.3496 26.9342 25.1318C27.043 24.9051 27.2017 24.7282 27.4104 24.6012C27.6191 24.4741 27.8731 24.4106 28.1724 24.4106C28.4899 24.4106 28.7303 24.4832 28.8936 24.6284C29.066 24.7644 29.1839 24.9549 29.2474 25.1999C29.3109 25.4448 29.3427 25.726 29.3427 26.0435V29.7039H32.3499V27.2416C32.4424 27.5524 32.5746 27.8379 32.7467 28.0982C33.1277 28.6607 33.6584 29.0916 34.3388 29.3909C35.0282 29.6903 35.8401 29.84 36.7745 29.84C37.5909 29.84 38.3212 29.7356 38.9653 29.527C39.6094 29.3093 40.131 29.0054 40.5301 28.6153C40.8224 28.3296 41.0223 28.0124 41.1297 27.6634V29.7039H44.1369V27.7717L44.9534 27.0369L45.3752 27.6628L46.8992 29.7039H50.6276L47.1306 25.2679L50.5732 22.3016H46.8312L45.0214 23.9481L44.1369 24.8053V19.7842H41.1297ZM35.1961 26.6694H41.1297V27.2682H38.3802C38.2986 27.4406 38.1171 27.5857 37.8359 27.7036C37.5547 27.8125 37.2281 27.8669 36.8562 27.8669C36.5114 27.8669 36.2166 27.8216 35.9717 27.7308C35.7267 27.6311 35.5362 27.4904 35.4002 27.309C35.2732 27.1276 35.2051 26.9144 35.1961 26.6694ZM38.2142 25.1046H35.1454C35.1961 24.9192 35.2766 24.7604 35.3866 24.6284C35.5317 24.4651 35.7177 24.3471 35.9445 24.2746C36.1712 24.1929 36.4343 24.1521 36.7337 24.1521C37.0694 24.1521 37.3415 24.1975 37.5501 24.2882C37.7679 24.3789 37.9311 24.5059 38.04 24.6692C38.1271 24.7998 38.1851 24.9449 38.2142 25.1046Z" fill="white"/>
<path fill-rule="evenodd" clip-rule="evenodd" d="M52.7525 29.8397C52.2172 29.8397 51.7274 29.7535 51.2828 29.5811C50.8475 29.3997 50.471 29.1411 50.1535 28.8055C49.836 28.4699 49.591 28.0662 49.4187 27.5944C49.2463 27.1228 49.1602 26.5966 49.1602 26.016C49.1602 25.2268 49.3098 24.5464 49.6092 23.9749C49.9085 23.4034 50.3258 22.9634 50.861 22.655C51.4053 22.3466 52.0358 22.1924 52.7525 22.1924C53.197 22.1924 53.5825 22.2377 53.9091 22.3284C54.2357 22.4191 54.5123 22.5461 54.7391 22.7094C54.975 22.8636 55.161 23.0496 55.297 23.2673H55.4059L55.4875 22.3012H58.345V29.7036H55.3378V28.7647H55.229C55.0022 29.1003 54.6665 29.3634 54.222 29.5539C53.7775 29.7444 53.2877 29.8397 52.7525 29.8397ZM53.7186 27.5944C54.0542 27.5944 54.34 27.5309 54.5758 27.4039C54.8208 27.2769 55.0067 27.1001 55.1337 26.8733C55.2607 26.6465 55.3242 26.3879 55.3242 26.0976V25.9344C55.3242 25.635 55.2607 25.3764 55.1337 25.1588C55.0067 24.9319 54.8208 24.7551 54.5758 24.6281C54.34 24.5011 54.0542 24.4376 53.7186 24.4376C53.4192 24.4376 53.1516 24.4965 52.9157 24.6144C52.689 24.7324 52.5075 24.9093 52.3715 25.1451C52.2445 25.381 52.181 25.6713 52.181 26.016C52.181 26.3608 52.2445 26.651 52.3715 26.8869C52.4985 27.1228 52.6753 27.2996 52.9022 27.4176C53.138 27.5355 53.4102 27.5944 53.7186 27.5944Z" fill="white"/>
<path fill-rule="evenodd" clip-rule="evenodd" d="M2.4997 39.3341C2.83535 39.4793 3.22543 39.5518 3.66993 39.5518H6.14646V37.6809C6.19448 37.7721 6.24681 37.8604 6.30344 37.9461C6.68444 38.5085 7.21513 38.9394 7.8955 39.2388C8.58494 39.5381 9.39688 39.6878 10.3313 39.6878C11.1477 39.6878 11.8779 39.5835 12.522 39.3749C13.1661 39.1571 13.6877 38.8533 14.0868 38.4632C14.3786 38.178 14.5783 37.8613 14.6859 37.5131C14.8565 37.9547 15.0926 38.3349 15.3943 38.6538C15.7118 38.9894 16.0882 39.2479 16.5236 39.4294C16.9681 39.6017 17.458 39.6879 17.9933 39.6879C18.5284 39.6879 19.0183 39.5926 19.4628 39.4021C19.9073 39.2116 20.243 38.9486 20.4698 38.6129H20.5786V39.5518H23.5858V32.1494H20.7283L20.6466 33.1156H20.5378C20.4018 32.8978 20.2157 32.7119 19.9799 32.5577C19.7531 32.3944 19.4764 32.2674 19.1499 32.1766C18.8232 32.0859 18.4378 32.0406 17.9933 32.0406C17.2766 32.0406 16.6461 32.1948 16.1018 32.5033C15.5666 32.8117 15.1493 33.2516 14.8499 33.8231C14.7251 34.0614 14.6263 34.3186 14.5536 34.5948C14.4962 34.4154 14.4268 34.2444 14.3454 34.0816C14.0098 33.4103 13.4972 32.8978 12.8078 32.544C12.1274 32.1902 11.2928 32.0133 10.304 32.0133C9.40594 32.0133 8.61219 32.1675 7.92275 32.4759C7.24238 32.7753 6.70713 33.2153 6.31706 33.7959C6.25519 33.8887 6.1983 33.985 6.14646 34.0848V32.1494H4.39111V29.8906L1.43833 30.4485V32.1494H0.172852V34.3946H1.43833V37.5107C1.43833 37.9734 1.52905 38.3544 1.71048 38.6538C1.90098 38.9531 2.16405 39.1799 2.4997 39.3341ZM6.006 34.3946H4.39111V36.5174C4.39111 36.7079 4.43194 36.8394 4.51358 36.912C4.6043 36.9846 4.74945 37.0209 4.94901 37.0209H5.88691C5.79268 36.6787 5.74556 36.3068 5.74556 35.905C5.74556 35.3416 5.83237 34.8381 6.006 34.3946ZM8.75275 36.5173H14.4401C14.4659 36.725 14.5046 36.9246 14.5562 37.1161H11.9369C11.8553 37.2884 11.6738 37.4336 11.3926 37.5515C11.1114 37.6603 10.7848 37.7148 10.4129 37.7148C10.0681 37.7148 9.77331 37.6694 9.52838 37.5787C9.28344 37.4789 9.09294 37.3383 8.95688 37.1569C8.82988 36.9754 8.76188 36.7623 8.75275 36.5173ZM11.7709 34.9525H8.70213C8.75288 34.7671 8.83325 34.6082 8.94325 34.4762C9.08844 34.3129 9.27438 34.195 9.50119 34.1224C9.72794 34.0408 9.99106 34 10.2904 34C10.6261 34 10.8982 34.0453 11.1068 34.1361C11.3246 34.2267 11.4878 34.3538 11.5967 34.5171C11.6838 34.6477 11.7419 34.7928 11.7709 34.9525ZM19.8166 37.2522C19.5808 37.3792 19.295 37.4427 18.9594 37.4427C18.6509 37.4427 18.3788 37.3837 18.1429 37.2658C17.9161 37.1479 17.7393 36.9709 17.6123 36.7351C17.4853 36.4993 17.4218 36.2089 17.4218 35.8643C17.4218 35.5195 17.4853 35.2293 17.6123 34.9934C17.7483 34.7575 17.9298 34.5806 18.1565 34.4627C18.3924 34.3448 18.66 34.2858 18.9594 34.2858C19.295 34.2858 19.5808 34.3493 19.8166 34.4763C20.0616 34.6033 20.2475 34.7802 20.3745 35.007C20.5015 35.2247 20.565 35.4832 20.565 35.7826V35.9459C20.565 36.2362 20.5015 36.4947 20.3745 36.7215C20.2475 36.9483 20.0616 37.1252 19.8166 37.2522Z" fill="white"/>
<path d="M23.8066 32.1497V39.5521H26.8138V35.742C26.8138 35.4609 26.8683 35.2114 26.9771 34.9937C27.086 34.7669 27.2402 34.59 27.4398 34.463C27.6485 34.3269 27.9025 34.2589 28.2018 34.2589C28.5284 34.2589 28.7778 34.3314 28.9502 34.4766C29.1226 34.6127 29.236 34.8032 29.2904 35.0481C29.3539 35.2839 29.3856 35.5561 29.3856 35.8645V39.5521H32.3793V35.742C32.3793 35.4518 32.4336 35.1978 32.5425 34.98C32.6514 34.7533 32.8101 34.5764 33.0188 34.4494C33.2275 34.3224 33.4815 34.2589 33.7808 34.2589C34.0983 34.2589 34.3387 34.3314 34.502 34.4766C34.6743 34.6127 34.7923 34.8032 34.8558 35.0481C34.9193 35.293 34.951 35.5742 34.951 35.8917V39.5521H37.9582V35.5107C37.9582 34.7034 37.8358 34.0457 37.5908 33.5377C37.3459 33.0206 36.9921 32.6396 36.5295 32.3947C36.0759 32.1407 35.5316 32.0137 34.8966 32.0137C34.2888 32.0137 33.749 32.127 33.2773 32.3539C32.8056 32.5715 32.4201 32.9525 32.1207 33.4969H31.9846C31.7578 32.9889 31.4222 32.6169 30.9777 32.381C30.5332 32.1361 30.0116 32.0137 29.4128 32.0137C28.8504 32.0137 28.356 32.118 27.9296 32.3266C27.5123 32.5353 27.1858 32.8392 26.95 33.2383H26.8138L26.6778 32.1497H23.8066Z" fill="white"/>
<path d="M12.3399 29.84C11.6958 29.84 11.1334 29.7312 10.6526 29.5134C10.1718 29.2957 9.79983 28.9329 9.53677 28.4249C9.2737 27.9169 9.1422 27.2365 9.1422 26.3837V22.9794L6.4862 25.2679L9.98327 29.7039H6.25483L4.73083 27.6628L4.309 27.0369L3.49257 27.7717V29.7039H0.485352V19.7842H3.49257V24.8053L4.37704 23.9481L6.18682 22.3016H12.1494V25.8394C12.1494 26.1751 12.1811 26.479 12.2446 26.7512C12.3172 27.0142 12.4442 27.2229 12.6256 27.3771C12.8161 27.5222 13.0792 27.5948 13.4149 27.5948C13.7415 27.5948 14.0181 27.5267 14.2449 27.3907C14.4717 27.2546 14.6441 27.0641 14.762 26.8192C14.889 26.5742 14.9525 26.2976 14.9525 25.9891V22.3016H17.9597V29.7039H15.075L14.9525 28.6289H14.83C14.6214 28.9918 14.2857 29.2866 13.8231 29.5134C13.3695 29.7312 12.8751 29.84 12.3399 29.84Z" fill="white"/>
<path d="M49.5012 0.000469208C44.0098 0.000469208 39.5581 4.45216 39.5581 9.94359C39.5581 15.435 44.0098 19.8867 49.5012 19.8867C54.9926 19.8867 59.4443 15.435 59.4443 9.94359C59.4443 4.45216 54.9926 0.000469208 49.5012 0.000469208Z" fill="#FB6111"/>
<path opacity="0.7" d="M29.6155 0.000469208C24.124 0.000469208 19.6723 4.45216 19.6723 9.94359C19.6723 15.435 24.124 19.8867 29.6155 19.8867C35.1069 19.8867 39.5586 15.435 39.5586 9.94359C39.5586 4.45216 35.1069 0.000469208 29.6155 0.000469208Z" fill="#FB6111"/>
<path opacity="0.5" d="M9.94262 0.000469208C4.45118 0.000469208 -0.000507355 4.45216 -0.000507355 9.94359C-0.000507355 15.435 4.45118 19.8867 9.94262 19.8867C15.4341 19.8867 19.8857 15.435 19.8857 9.94359C19.8857 4.45216 15.4341 0.000469208 9.94262 0.000469208Z" fill="#FB6111"/>
</g>
<defs>
<clipPath id="clip0_26_34">
<rect width="59.5" height="39.6875" fill="white"/>
</clipPath>
</defs>
</svg>
