<svg width="11" height="8" viewBox="0 0 11 8" fill="none" xmlns="http://www.w3.org/2000/svg">
<path d="M1.65547 0.784467C1.7116 0.729992 1.78707 0.700042 1.86528 0.701204C1.9435 0.702367 2.01805 0.734545 2.07254 0.790664C2.13182 0.852949 2.16431 0.935997 2.16303 1.02197C2.16176 1.10795 2.12682 1.19 2.06572 1.2505C1.26445 2.06139 0.815686 3.1558 0.816987 4.29579C0.816987 5.52903 1.33135 6.64205 2.15806 7.43157C2.18983 7.46115 2.21542 7.49674 2.23336 7.53628C2.25129 7.57582 2.2612 7.61852 2.26253 7.66192C2.26385 7.70531 2.25656 7.74854 2.24108 7.7891C2.22559 7.82966 2.20222 7.86675 2.17231 7.89821C2.119 7.95329 2.04631 7.98539 1.9697 7.98771C1.89309 7.99002 1.81859 7.96236 1.76206 7.91061C1.2675 7.44742 0.873412 6.88754 0.604235 6.26572C0.335057 5.64389 0.196537 4.97338 0.197269 4.29579C0.197269 2.92374 0.755015 1.68182 1.65547 0.784467ZM8.24431 1.2505C8.18329 1.18991 8.14847 1.10782 8.14731 1.02185C8.14615 0.93587 8.17875 0.852869 8.23811 0.790664C8.29258 0.734734 8.36699 0.702675 8.44506 0.701514C8.52312 0.700352 8.59846 0.730182 8.65456 0.784467C9.11726 1.2446 9.48432 1.79175 9.73459 2.39439C9.98486 2.99704 10.1134 3.64325 10.1128 4.29579C10.1128 5.72114 9.51163 7.00644 8.54797 7.91061C8.49143 7.96236 8.41694 7.99002 8.34033 7.98771C8.26372 7.98539 8.19103 7.95329 8.13772 7.89821C8.1079 7.86676 8.08461 7.82971 8.06918 7.78921C8.05375 7.74871 8.04649 7.70555 8.04781 7.66223C8.04914 7.61891 8.05902 7.57628 8.0769 7.5368C8.09478 7.49732 8.12029 7.46176 8.15197 7.43219C8.57642 7.0276 8.91418 6.54093 9.14472 6.00176C9.37526 5.46259 9.49376 4.88218 9.49304 4.29579C9.4945 3.15559 9.04572 2.06154 8.24431 1.2505ZM2.75794 1.87269C2.81317 1.8201 2.88702 1.79159 2.96326 1.79345C3.03951 1.79531 3.11188 1.82738 3.16448 1.88261C3.29338 2.01151 3.28037 2.22345 3.15332 2.35359C2.64846 2.87405 2.36616 3.57069 2.36628 4.29579C2.36628 5.09523 2.70279 5.81658 3.24256 6.32537C3.3789 6.45365 3.39749 6.67303 3.26425 6.80627C3.21318 6.85937 3.14364 6.89079 3.07003 6.89402C2.99643 6.89725 2.9244 6.87205 2.86887 6.82362C2.51554 6.5041 2.23311 6.11406 2.0398 5.67866C1.84649 5.24326 1.7466 4.77217 1.74656 4.29579C1.74588 3.84499 1.83496 3.39856 2.0086 2.98254C2.18224 2.56653 2.43698 2.18924 2.75794 1.87269ZM7.1567 2.35359C7.02966 2.22345 7.01665 2.01151 7.14555 1.88261C7.19814 1.82738 7.27052 1.79531 7.34676 1.79345C7.423 1.79159 7.49686 1.8201 7.55208 1.87269C7.87305 2.18924 8.12778 2.56653 8.30142 2.98254C8.47507 3.39856 8.56415 3.84499 8.56346 4.29579C8.5636 4.77223 8.46384 5.24341 8.27064 5.67892C8.07743 6.11443 7.79507 6.50459 7.44177 6.82424C7.38602 6.87288 7.31363 6.89809 7.23973 6.89463C7.16582 6.89117 7.09612 6.85929 7.04515 6.80565C6.91253 6.67303 6.93113 6.45365 7.06746 6.32537C7.34415 6.06466 7.56461 5.75014 7.7153 5.40112C7.86599 5.0521 7.94373 4.67595 7.94375 4.29579C7.94387 3.57069 7.66157 2.87405 7.1567 2.35359ZM5.15501 3.52114C4.94956 3.52114 4.75253 3.60276 4.60725 3.74803C4.46198 3.89331 4.38037 4.09034 4.38037 4.29579C4.38037 4.50124 4.46198 4.69828 4.60725 4.84355C4.75253 4.98883 4.94956 5.07044 5.15501 5.07044C5.36046 5.07044 5.5575 4.98883 5.70277 4.84355C5.84805 4.69828 5.92966 4.50124 5.92966 4.29579C5.92966 4.09034 5.84805 3.89331 5.70277 3.74803C5.5575 3.60276 5.36046 3.52114 5.15501 3.52114Z" fill="#FBFFFC"/>
</svg>
