<svg width="40" height="34" viewBox="0 0 40 34" fill="none" xmlns="http://www.w3.org/2000/svg">
<path d="M40.001 4.02898C38.5028 4.72005 36.9142 5.17419 35.2877 5.37644C37.0003 4.305 38.2818 2.62114 38.8943 0.637792C37.2853 1.63713 35.5212 2.33748 33.6846 2.71633C32.4496 1.33728 30.8126 0.422696 29.0281 0.114749C27.2437 -0.193198 25.4117 0.122748 23.817 1.01347C22.2224 1.90419 20.9544 3.31978 20.2102 5.04017C19.466 6.76056 19.2872 8.68936 19.7017 10.5267C16.4383 10.3568 13.2457 9.47224 10.3313 7.93048C7.41683 6.38871 4.84585 4.22425 2.78538 1.57774C2.05617 2.88525 1.67289 4.37145 1.67476 5.8843C1.67476 8.85363 3.12484 11.4769 5.3245 13.0127C4.02196 12.9674 2.74829 12.6004 1.60804 11.9417V12.0462C1.60798 14.0241 2.26349 15.9412 3.46339 17.4722C4.66329 19.0033 6.3337 20.054 8.19131 20.4463C6.98193 20.7891 5.71357 20.8395 4.4827 20.5938C5.00647 22.2963 6.02739 23.7852 7.40249 24.852C8.77759 25.9187 10.438 26.5099 12.1511 26.5427C10.4483 27.9376 8.49881 28.9687 6.41407 29.5773C4.32934 30.1859 2.15016 30.3599 0.000976562 30.0895C3.75216 32.6071 8.1189 33.9437 12.5789 33.9394C27.6762 33.9394 35.9294 20.8886 35.9294 9.57037C35.9294 9.2004 35.9215 8.83111 35.9058 8.4625C37.5116 7.25082 38.8977 5.75021 39.999 4.03102" fill="#FBFFFC"/>
</svg>
