<svg width="298" height="286" viewBox="0 0 298 286" fill="none" xmlns="http://www.w3.org/2000/svg">
<path fill-rule="evenodd" clip-rule="evenodd" d="M298.001 23C298.001 10.2975 287.704 0 275.001 0H23.001C10.2984 0 0.000976562 10.2975 0.000976562 23V214C0.000976562 226.703 10.2984 237 23.001 237H124.001C136.704 237 147.001 247.297 147.001 260V263C147.001 275.703 157.298 286 170.001 286H275.001C287.704 286 298.001 275.703 298.001 263V237V23Z" fill="#FBFFFC"/>
<g clip-path="url(#clip0_2064_5)">
<path d="M47.2317 48.5455V56.1818C47.2317 57.2424 46.8616 58.1439 46.1212 58.8864C45.3808 59.6288 44.4817 60 43.4241 60H35.8087C34.751 60 33.8519 59.6288 33.1116 58.8864C32.3712 58.1439 32.001 57.2424 32.001 56.1818V42.1818C32.001 40.803 32.2687 39.4872 32.8042 38.2344C33.3396 36.9815 34.0635 35.8977 34.9757 34.983C35.888 34.0682 36.9688 33.3423 38.2182 32.8054C39.4676 32.2685 40.7798 32 42.1548 32H43.4241C43.7678 32 44.0653 32.1259 44.3165 32.3778C44.5677 32.6297 44.6933 32.928 44.6933 33.2727V35.8182C44.6933 36.1629 44.5677 36.4612 44.3165 36.7131C44.0653 36.965 43.7678 37.0909 43.4241 37.0909H42.1548C40.7534 37.0909 39.5569 37.5881 38.5653 38.5824C37.5737 39.5767 37.0779 40.7765 37.0779 42.1818V42.8182C37.0779 43.3485 37.263 43.7992 37.6332 44.1705C38.0034 44.5417 38.4529 44.7273 38.9817 44.7273H43.4241C44.4817 44.7273 45.3808 45.0985 46.1212 45.8409C46.8616 46.5833 47.2317 47.4848 47.2317 48.5455ZM65.001 48.5455V56.1818C65.001 57.2424 64.6308 58.1439 63.8904 58.8864C63.15 59.6288 62.251 60 61.1933 60H53.5779C52.5202 60 51.6212 59.6288 50.8808 58.8864C50.1404 58.1439 49.7702 57.2424 49.7702 56.1818V42.1818C49.7702 40.803 50.0379 39.4872 50.5734 38.2344C51.1088 36.9815 51.8327 35.8977 52.745 34.983C53.6572 34.0682 54.7381 33.3423 55.9875 32.8054C57.2369 32.2685 58.5491 32 59.9241 32H61.1933C61.537 32 61.8345 32.1259 62.0857 32.3778C62.3369 32.6297 62.4625 32.928 62.4625 33.2727V35.8182C62.4625 36.1629 62.3369 36.4612 62.0857 36.7131C61.8345 36.965 61.537 37.0909 61.1933 37.0909H59.9241C58.5226 37.0909 57.3261 37.5881 56.3345 38.5824C55.3429 39.5767 54.8471 40.7765 54.8471 42.1818V42.8182C54.8471 43.3485 55.0322 43.7992 55.4024 44.1705C55.7726 44.5417 56.2221 44.7273 56.751 44.7273H61.1933C62.251 44.7273 63.15 45.0985 63.8904 45.8409C64.6308 46.5833 65.001 47.4848 65.001 48.5455Z" fill="#EDEDED"/>
</g>
<defs>
<clipPath id="clip0_2064_5">
<rect width="33" height="28" fill="white" transform="translate(32.001 32)"/>
</clipPath>
</defs>
</svg>
