<svg width="19" height="12" viewBox="0 0 19 12" fill="none" xmlns="http://www.w3.org/2000/svg">
<g clip-path="url(#clip0_19_653)">
<path d="M0.5 0.923828H18.5V1.84733H0.5V0.923828Z" fill="#FBFFFC"/>
<path d="M0.5 0H18.5V0.923503H0.5V0Z" fill="#BA000D"/>
<path d="M0.5 2.77051H18.5V3.69401H0.5V2.77051Z" fill="#FBFFFC"/>
<path d="M0.5 1.84668H18.5V2.77018H0.5V1.84668Z" fill="#BA000D"/>
<path d="M0.492188 4.60938H18.5102V5.5323H0.492188V4.60938Z" fill="#FBFFFC"/>
<path d="M0.492188 3.68652H18.5102V4.60945H0.492188V3.68652Z" fill="#BA000D"/>
<path d="M0.5 6.46484H18.5V7.38835H0.5V6.46484Z" fill="#FBFFFC"/>
<path d="M0.5 5.54102H18.5V6.46452H0.5V5.54102Z" fill="#BA000D"/>
<path d="M0.492188 7.38086H18.5102V8.30378H0.492188V7.38086Z" fill="#BA000D"/>
<path d="M0.492188 8.30078H18.5102V9.2237H0.492188V8.30078Z" fill="#FBFFFC"/>
<path d="M0.492188 9.22363H18.5102V10.1466H0.492188V9.22363Z" fill="#BA000D"/>
<path d="M0.5 0H8.71028V6.46746H0.5V0Z" fill="#515CEC"/>
<path d="M1.11851 0.568271L1.29455 0.710529L1.00964 0.94059L1.11851 0.568271Z" fill="#FBFFFC"/>
<path d="M1.24022 0.52362L1.17298 0.753725L0.888116 0.523619L1.24022 0.52362Z" fill="#FBFFFC"/>
<path d="M1.31528 0.638943H1.09766L1.20647 0.266602L1.31528 0.638943Z" fill="#FBFFFC"/>
<path d="M1.23997 0.754339L1.17273 0.524233L1.52483 0.524233L1.23997 0.754339Z" fill="#FBFFFC"/>
<path d="M1.11828 0.710208L1.29432 0.567951L1.40319 0.940269L1.11828 0.710208Z" fill="#FBFFFC"/>
<path d="M2.47984 0.568271L2.65588 0.710529L2.37096 0.94059L2.47984 0.568271Z" fill="#FBFFFC"/>
<path d="M2.60155 0.52362L2.5343 0.753725L2.24944 0.523619L2.60155 0.52362Z" fill="#FBFFFC"/>
<path d="M2.67661 0.638943H2.45898L2.5678 0.266602L2.67661 0.638943Z" fill="#FBFFFC"/>
<path d="M2.6013 0.754339L2.53406 0.524233L2.88616 0.524233L2.6013 0.754339Z" fill="#FBFFFC"/>
<path d="M2.4796 0.710208L2.65564 0.567951L2.76452 0.940269L2.4796 0.710208Z" fill="#FBFFFC"/>
<path d="M3.84117 0.568271L4.01721 0.710529L3.73229 0.94059L3.84117 0.568271Z" fill="#FBFFFC"/>
<path d="M3.96288 0.52362L3.89563 0.753725L3.61077 0.523619L3.96288 0.52362Z" fill="#FBFFFC"/>
<path d="M4.03794 0.638943H3.82031L3.92913 0.266602L4.03794 0.638943Z" fill="#FBFFFC"/>
<path d="M3.96263 0.754339L3.89538 0.524233L4.24749 0.524233L3.96263 0.754339Z" fill="#FBFFFC"/>
<path d="M3.84093 0.710208L4.01697 0.567951L4.12585 0.940269L3.84093 0.710208Z" fill="#FBFFFC"/>
<path d="M5.2025 0.568271L5.37854 0.710529L5.09362 0.94059L5.2025 0.568271Z" fill="#FBFFFC"/>
<path d="M5.32421 0.52362L5.25696 0.753725L4.9721 0.523619L5.32421 0.52362Z" fill="#FBFFFC"/>
<path d="M5.39927 0.638943H5.18164L5.29045 0.266602L5.39927 0.638943Z" fill="#FBFFFC"/>
<path d="M5.32396 0.754339L5.25671 0.524233L5.60882 0.524233L5.32396 0.754339Z" fill="#FBFFFC"/>
<path d="M5.20226 0.710208L5.3783 0.567951L5.48718 0.940269L5.20226 0.710208Z" fill="#FBFFFC"/>
<path d="M6.56187 0.568271L6.73791 0.710529L6.453 0.94059L6.56187 0.568271Z" fill="#FBFFFC"/>
<path d="M6.68358 0.52362L6.61633 0.753725L6.33147 0.523619L6.68358 0.52362Z" fill="#FBFFFC"/>
<path d="M6.75864 0.638943H6.54102L6.64983 0.266602L6.75864 0.638943Z" fill="#FBFFFC"/>
<path d="M6.68333 0.754339L6.61609 0.524233L6.96819 0.524233L6.68333 0.754339Z" fill="#FBFFFC"/>
<path d="M6.56164 0.710208L6.73768 0.567951L6.84655 0.940269L6.56164 0.710208Z" fill="#FBFFFC"/>
<path d="M7.92515 0.568271L8.10119 0.710529L7.81628 0.94059L7.92515 0.568271Z" fill="#FBFFFC"/>
<path d="M8.04686 0.52362L7.97962 0.753725L7.69476 0.523619L8.04686 0.52362Z" fill="#FBFFFC"/>
<path d="M8.12192 0.638943H7.9043L8.01311 0.266602L8.12192 0.638943Z" fill="#FBFFFC"/>
<path d="M8.04661 0.754339L7.97937 0.524233L8.33147 0.524233L8.04661 0.754339Z" fill="#FBFFFC"/>
<path d="M7.92492 0.710208L8.10096 0.567951L8.20983 0.940269L7.92492 0.710208Z" fill="#FBFFFC"/>
<path d="M1.7982 1.21671L1.97424 1.35897L1.68932 1.58903L1.7982 1.21671Z" fill="#FBFFFC"/>
<path d="M1.91991 1.17206L1.85266 1.40216L1.5678 1.17206L1.91991 1.17206Z" fill="#FBFFFC"/>
<path d="M1.99497 1.28738H1.77734L1.88616 0.915039L1.99497 1.28738Z" fill="#FBFFFC"/>
<path d="M1.91966 1.40278L1.85242 1.17267L2.20452 1.17267L1.91966 1.40278Z" fill="#FBFFFC"/>
<path d="M1.79796 1.35865L1.974 1.21639L2.08288 1.58871L1.79796 1.35865Z" fill="#FBFFFC"/>
<path d="M3.1605 1.21671L3.33654 1.35897L3.05163 1.58903L3.1605 1.21671Z" fill="#FBFFFC"/>
<path d="M3.28221 1.17206L3.21497 1.40216L2.93011 1.17206L3.28221 1.17206Z" fill="#FBFFFC"/>
<path d="M3.35728 1.28738H3.13965L3.24846 0.915039L3.35728 1.28738Z" fill="#FBFFFC"/>
<path d="M3.28197 1.40278L3.21472 1.17267L3.56683 1.17267L3.28197 1.40278Z" fill="#FBFFFC"/>
<path d="M3.16027 1.35865L3.33631 1.21639L3.44518 1.58871L3.16027 1.35865Z" fill="#FBFFFC"/>
<path d="M4.52085 1.21671L4.69689 1.35897L4.41198 1.58903L4.52085 1.21671Z" fill="#FBFFFC"/>
<path d="M4.64257 1.17206L4.57532 1.40216L4.29046 1.17206L4.64257 1.17206Z" fill="#FBFFFC"/>
<path d="M4.71763 1.28738H4.5L4.60881 0.915039L4.71763 1.28738Z" fill="#FBFFFC"/>
<path d="M4.64232 1.40278L4.57507 1.17267L4.92718 1.17267L4.64232 1.40278Z" fill="#FBFFFC"/>
<path d="M4.52062 1.35865L4.69666 1.21639L4.80553 1.58871L4.52062 1.35865Z" fill="#FBFFFC"/>
<path d="M5.88316 1.21671L6.0592 1.35897L5.77428 1.58903L5.88316 1.21671Z" fill="#FBFFFC"/>
<path d="M6.00487 1.17206L5.93762 1.40216L5.65276 1.17206L6.00487 1.17206Z" fill="#FBFFFC"/>
<path d="M6.07993 1.28738H5.8623L5.97112 0.915039L6.07993 1.28738Z" fill="#FBFFFC"/>
<path d="M6.00462 1.40278L5.93738 1.17267L6.28948 1.17267L6.00462 1.40278Z" fill="#FBFFFC"/>
<path d="M5.88292 1.35865L6.05896 1.21639L6.16784 1.58871L5.88292 1.35865Z" fill="#FBFFFC"/>
<path d="M7.24253 1.21671L7.41857 1.35897L7.13366 1.58903L7.24253 1.21671Z" fill="#FBFFFC"/>
<path d="M7.36425 1.17206L7.297 1.40216L7.01214 1.17206L7.36425 1.17206Z" fill="#FBFFFC"/>
<path d="M7.43931 1.28738H7.22168L7.33049 0.915039L7.43931 1.28738Z" fill="#FBFFFC"/>
<path d="M7.364 1.40278L7.29675 1.17267L7.64886 1.17267L7.364 1.40278Z" fill="#FBFFFC"/>
<path d="M7.2423 1.35865L7.41834 1.21639L7.52721 1.58871L7.2423 1.35865Z" fill="#FBFFFC"/>
<path d="M1.11851 1.86417L1.29455 2.00643L1.00964 2.23649L1.11851 1.86417Z" fill="#FBFFFC"/>
<path d="M1.24022 1.82049L1.17298 2.0506L0.888116 1.82049L1.24022 1.82049Z" fill="#FBFFFC"/>
<path d="M1.31528 1.93582H1.09766L1.20647 1.56348L1.31528 1.93582Z" fill="#FBFFFC"/>
<path d="M1.23997 2.05024L1.17273 1.82013L1.52483 1.82013L1.23997 2.05024Z" fill="#FBFFFC"/>
<path d="M1.11828 2.00708L1.29432 1.86483L1.40319 2.23714L1.11828 2.00708Z" fill="#FBFFFC"/>
<path d="M2.47984 1.86515L2.65588 2.0074L2.37096 2.23746L2.47984 1.86515Z" fill="#FBFFFC"/>
<path d="M2.60155 1.82049L2.5343 2.0506L2.24944 1.82049L2.60155 1.82049Z" fill="#FBFFFC"/>
<path d="M2.67661 1.93582H2.45898L2.5678 1.56348L2.67661 1.93582Z" fill="#FBFFFC"/>
<path d="M2.6013 2.05121L2.53406 1.82111L2.88616 1.82111L2.6013 2.05121Z" fill="#FBFFFC"/>
<path d="M2.4796 2.00708L2.65564 1.86483L2.76452 2.23714L2.4796 2.00708Z" fill="#FBFFFC"/>
<path d="M3.84117 1.86515L4.01721 2.0074L3.73229 2.23746L3.84117 1.86515Z" fill="#FBFFFC"/>
<path d="M3.96288 1.82049L3.89563 2.0506L3.61077 1.82049L3.96288 1.82049Z" fill="#FBFFFC"/>
<path d="M4.03794 1.93582H3.82031L3.92913 1.56348L4.03794 1.93582Z" fill="#FBFFFC"/>
<path d="M3.96263 2.05121L3.89538 1.82111L4.24749 1.82111L3.96263 2.05121Z" fill="#FBFFFC"/>
<path d="M3.84093 2.00708L4.01697 1.86483L4.12585 2.23714L3.84093 2.00708Z" fill="#FBFFFC"/>
<path d="M5.2025 1.86515L5.37854 2.0074L5.09362 2.23746L5.2025 1.86515Z" fill="#FBFFFC"/>
<path d="M5.32421 1.82049L5.25696 2.0506L4.9721 1.82049L5.32421 1.82049Z" fill="#FBFFFC"/>
<path d="M5.39927 1.93582H5.18164L5.29045 1.56348L5.39927 1.93582Z" fill="#FBFFFC"/>
<path d="M5.32396 2.05121L5.25671 1.82111L5.60882 1.82111L5.32396 2.05121Z" fill="#FBFFFC"/>
<path d="M5.20226 2.00708L5.3783 1.86483L5.48718 2.23714L5.20226 2.00708Z" fill="#FBFFFC"/>
<path d="M6.56187 1.86515L6.73791 2.0074L6.453 2.23746L6.56187 1.86515Z" fill="#FBFFFC"/>
<path d="M6.68358 1.82049L6.61633 2.0506L6.33147 1.82049L6.68358 1.82049Z" fill="#FBFFFC"/>
<path d="M6.75864 1.93582H6.54102L6.64983 1.56348L6.75864 1.93582Z" fill="#FBFFFC"/>
<path d="M6.68333 2.05121L6.61609 1.82111L6.96819 1.82111L6.68333 2.05121Z" fill="#FBFFFC"/>
<path d="M6.56164 2.00708L6.73768 1.86483L6.84655 2.23714L6.56164 2.00708Z" fill="#FBFFFC"/>
<path d="M7.92515 1.86515L8.10119 2.0074L7.81628 2.23746L7.92515 1.86515Z" fill="#FBFFFC"/>
<path d="M8.04686 1.82049L7.97962 2.0506L7.69476 1.82049L8.04686 1.82049Z" fill="#FBFFFC"/>
<path d="M8.12192 1.93582H7.9043L8.01311 1.56348L8.12192 1.93582Z" fill="#FBFFFC"/>
<path d="M8.04661 2.05121L7.97937 1.82111L8.33147 1.82111L8.04661 2.05121Z" fill="#FBFFFC"/>
<path d="M7.92492 2.00708L8.10096 1.86483L8.20983 2.23714L7.92492 2.00708Z" fill="#FBFFFC"/>
<path d="M1.7982 2.51456L1.97424 2.65682L1.68932 2.88688L1.7982 2.51456Z" fill="#FBFFFC"/>
<path d="M1.91991 2.46991L1.85266 2.70001L1.5678 2.46991L1.91991 2.46991Z" fill="#FBFFFC"/>
<path d="M1.99497 2.58523H1.77734L1.88616 2.21289L1.99497 2.58523Z" fill="#FBFFFC"/>
<path d="M1.91966 2.70063L1.85242 2.47052L2.20452 2.47052L1.91966 2.70063Z" fill="#FBFFFC"/>
<path d="M1.79796 2.6565L1.974 2.51424L2.08288 2.88656L1.79796 2.6565Z" fill="#FBFFFC"/>
<path d="M3.1605 2.51456L3.33654 2.65682L3.05163 2.88688L3.1605 2.51456Z" fill="#FBFFFC"/>
<path d="M3.28221 2.46991L3.21497 2.70001L2.93011 2.46991L3.28221 2.46991Z" fill="#FBFFFC"/>
<path d="M3.35728 2.58523H3.13965L3.24846 2.21289L3.35728 2.58523Z" fill="#FBFFFC"/>
<path d="M3.28197 2.70063L3.21472 2.47052L3.56683 2.47052L3.28197 2.70063Z" fill="#FBFFFC"/>
<path d="M3.16027 2.6565L3.33631 2.51424L3.44518 2.88656L3.16027 2.6565Z" fill="#FBFFFC"/>
<path d="M4.52085 2.51456L4.69689 2.65682L4.41198 2.88688L4.52085 2.51456Z" fill="#FBFFFC"/>
<path d="M4.64257 2.46991L4.57532 2.70001L4.29046 2.46991L4.64257 2.46991Z" fill="#FBFFFC"/>
<path d="M4.71763 2.58523H4.5L4.60881 2.21289L4.71763 2.58523Z" fill="#FBFFFC"/>
<path d="M4.64232 2.70063L4.57507 2.47052L4.92718 2.47052L4.64232 2.70063Z" fill="#FBFFFC"/>
<path d="M4.52062 2.6565L4.69666 2.51424L4.80553 2.88656L4.52062 2.6565Z" fill="#FBFFFC"/>
<path d="M5.88316 2.51456L6.0592 2.65682L5.77428 2.88688L5.88316 2.51456Z" fill="#FBFFFC"/>
<path d="M6.00487 2.46991L5.93762 2.70001L5.65276 2.46991L6.00487 2.46991Z" fill="#FBFFFC"/>
<path d="M6.07993 2.58523H5.8623L5.97112 2.21289L6.07993 2.58523Z" fill="#FBFFFC"/>
<path d="M6.00462 2.70063L5.93738 2.47052L6.28948 2.47052L6.00462 2.70063Z" fill="#FBFFFC"/>
<path d="M5.88292 2.6565L6.05896 2.51424L6.16784 2.88656L5.88292 2.6565Z" fill="#FBFFFC"/>
<path d="M7.24253 2.51456L7.41857 2.65682L7.13366 2.88688L7.24253 2.51456Z" fill="#FBFFFC"/>
<path d="M7.36425 2.46991L7.297 2.70001L7.01214 2.46991L7.36425 2.46991Z" fill="#FBFFFC"/>
<path d="M7.43931 2.58523H7.22168L7.33049 2.21289L7.43931 2.58523Z" fill="#FBFFFC"/>
<path d="M7.364 2.70063L7.29675 2.47052L7.64886 2.47052L7.364 2.70063Z" fill="#FBFFFC"/>
<path d="M7.2423 2.6565L7.41834 2.51424L7.52721 2.88656L7.2423 2.6565Z" fill="#FBFFFC"/>
<path d="M1.11851 3.163L1.29455 3.30526L1.00964 3.53532L1.11851 3.163Z" fill="#FBFFFC"/>
<path d="M1.24022 3.11835L1.17298 3.34845L0.888116 3.11835L1.24022 3.11835Z" fill="#FBFFFC"/>
<path d="M1.31528 3.23367H1.09766L1.20647 2.86133L1.31528 3.23367Z" fill="#FBFFFC"/>
<path d="M1.23997 3.34907L1.17273 3.11896L1.52483 3.11896L1.23997 3.34907Z" fill="#FBFFFC"/>
<path d="M1.11828 3.30493L1.29432 3.16268L1.40319 3.535L1.11828 3.30493Z" fill="#FBFFFC"/>
<path d="M2.47984 3.163L2.65588 3.30526L2.37096 3.53532L2.47984 3.163Z" fill="#FBFFFC"/>
<path d="M2.60155 3.11835L2.5343 3.34845L2.24944 3.11835L2.60155 3.11835Z" fill="#FBFFFC"/>
<path d="M2.67661 3.23367H2.45898L2.5678 2.86133L2.67661 3.23367Z" fill="#FBFFFC"/>
<path d="M2.6013 3.34907L2.53406 3.11896L2.88616 3.11896L2.6013 3.34907Z" fill="#FBFFFC"/>
<path d="M2.4796 3.30493L2.65564 3.16268L2.76452 3.535L2.4796 3.30493Z" fill="#FBFFFC"/>
<path d="M3.84117 3.163L4.01721 3.30526L3.73229 3.53532L3.84117 3.163Z" fill="#FBFFFC"/>
<path d="M3.96288 3.11835L3.89563 3.34845L3.61077 3.11835L3.96288 3.11835Z" fill="#FBFFFC"/>
<path d="M4.03794 3.23367H3.82031L3.92913 2.86133L4.03794 3.23367Z" fill="#FBFFFC"/>
<path d="M3.96263 3.34907L3.89538 3.11896L4.24749 3.11896L3.96263 3.34907Z" fill="#FBFFFC"/>
<path d="M3.84093 3.30493L4.01697 3.16268L4.12585 3.535L3.84093 3.30493Z" fill="#FBFFFC"/>
<path d="M5.2025 3.163L5.37854 3.30526L5.09362 3.53532L5.2025 3.163Z" fill="#FBFFFC"/>
<path d="M5.32421 3.11835L5.25696 3.34845L4.9721 3.11835L5.32421 3.11835Z" fill="#FBFFFC"/>
<path d="M5.39927 3.23367H5.18164L5.29045 2.86133L5.39927 3.23367Z" fill="#FBFFFC"/>
<path d="M5.32396 3.34907L5.25671 3.11896L5.60882 3.11896L5.32396 3.34907Z" fill="#FBFFFC"/>
<path d="M5.20226 3.30493L5.3783 3.16268L5.48718 3.535L5.20226 3.30493Z" fill="#FBFFFC"/>
<path d="M6.56187 3.163L6.73791 3.30526L6.453 3.53532L6.56187 3.163Z" fill="#FBFFFC"/>
<path d="M6.68358 3.11835L6.61633 3.34845L6.33147 3.11835L6.68358 3.11835Z" fill="#FBFFFC"/>
<path d="M6.75864 3.23367H6.54102L6.64983 2.86133L6.75864 3.23367Z" fill="#FBFFFC"/>
<path d="M6.68333 3.34907L6.61609 3.11896L6.96819 3.11896L6.68333 3.34907Z" fill="#FBFFFC"/>
<path d="M6.56164 3.30493L6.73768 3.16268L6.84655 3.535L6.56164 3.30493Z" fill="#FBFFFC"/>
<path d="M7.92515 3.163L8.10119 3.30526L7.81628 3.53532L7.92515 3.163Z" fill="#FBFFFC"/>
<path d="M8.04686 3.11835L7.97962 3.34845L7.69476 3.11835L8.04686 3.11835Z" fill="#FBFFFC"/>
<path d="M8.12192 3.23367H7.9043L8.01311 2.86133L8.12192 3.23367Z" fill="#FBFFFC"/>
<path d="M8.04661 3.34907L7.97937 3.11896L8.33147 3.11896L8.04661 3.34907Z" fill="#FBFFFC"/>
<path d="M7.92492 3.30493L8.10096 3.16268L8.20983 3.535L7.92492 3.30493Z" fill="#FBFFFC"/>
<path d="M1.7982 3.81144L1.97424 3.95369L1.68932 4.18375L1.7982 3.81144Z" fill="#FBFFFC"/>
<path d="M1.91991 3.76678L1.85266 3.99689L1.5678 3.76678L1.91991 3.76678Z" fill="#FBFFFC"/>
<path d="M1.99497 3.88211H1.77734L1.88616 3.50977L1.99497 3.88211Z" fill="#FBFFFC"/>
<path d="M1.91966 3.9975L1.85242 3.7674L2.20452 3.7674L1.91966 3.9975Z" fill="#FBFFFC"/>
<path d="M1.79796 3.95337L1.974 3.81111L2.08288 4.18343L1.79796 3.95337Z" fill="#FBFFFC"/>
<path d="M3.1605 3.81144L3.33654 3.95369L3.05163 4.18375L3.1605 3.81144Z" fill="#FBFFFC"/>
<path d="M3.28221 3.76678L3.21497 3.99689L2.93011 3.76678L3.28221 3.76678Z" fill="#FBFFFC"/>
<path d="M3.35728 3.88211H3.13965L3.24846 3.50977L3.35728 3.88211Z" fill="#FBFFFC"/>
<path d="M3.28197 3.9975L3.21472 3.7674L3.56683 3.7674L3.28197 3.9975Z" fill="#FBFFFC"/>
<path d="M3.16027 3.95337L3.33631 3.81111L3.44518 4.18343L3.16027 3.95337Z" fill="#FBFFFC"/>
<path d="M4.52085 3.81144L4.69689 3.95369L4.41198 4.18375L4.52085 3.81144Z" fill="#FBFFFC"/>
<path d="M4.64257 3.76678L4.57532 3.99689L4.29046 3.76678L4.64257 3.76678Z" fill="#FBFFFC"/>
<path d="M4.71763 3.88211H4.5L4.60881 3.50977L4.71763 3.88211Z" fill="#FBFFFC"/>
<path d="M4.64232 3.9975L4.57507 3.7674L4.92718 3.7674L4.64232 3.9975Z" fill="#FBFFFC"/>
<path d="M4.52062 3.95337L4.69666 3.81111L4.80553 4.18343L4.52062 3.95337Z" fill="#FBFFFC"/>
<path d="M5.88316 3.81144L6.0592 3.95369L5.77428 4.18375L5.88316 3.81144Z" fill="#FBFFFC"/>
<path d="M6.00487 3.76678L5.93762 3.99689L5.65276 3.76678L6.00487 3.76678Z" fill="#FBFFFC"/>
<path d="M6.07993 3.88211H5.8623L5.97112 3.50977L6.07993 3.88211Z" fill="#FBFFFC"/>
<path d="M6.00462 3.9975L5.93738 3.7674L6.28948 3.7674L6.00462 3.9975Z" fill="#FBFFFC"/>
<path d="M5.88292 3.95337L6.05896 3.81111L6.16784 4.18343L5.88292 3.95337Z" fill="#FBFFFC"/>
<path d="M7.24253 3.81144L7.41857 3.95369L7.13366 4.18375L7.24253 3.81144Z" fill="#FBFFFC"/>
<path d="M7.36425 3.76678L7.297 3.99689L7.01214 3.76678L7.36425 3.76678Z" fill="#FBFFFC"/>
<path d="M7.43931 3.88211H7.22168L7.33049 3.50977L7.43931 3.88211Z" fill="#FBFFFC"/>
<path d="M7.364 3.9975L7.29675 3.7674L7.64886 3.7674L7.364 3.9975Z" fill="#FBFFFC"/>
<path d="M7.2423 3.95337L7.41834 3.81111L7.52721 4.18343L7.2423 3.95337Z" fill="#FBFFFC"/>
<path d="M1.11851 4.45987L1.29455 4.60213L1.00964 4.83219L1.11851 4.45987Z" fill="#FBFFFC"/>
<path d="M1.24022 4.41522L1.17298 4.64533L0.888116 4.41522L1.24022 4.41522Z" fill="#FBFFFC"/>
<path d="M1.31528 4.53054H1.09766L1.20647 4.1582L1.31528 4.53054Z" fill="#FBFFFC"/>
<path d="M1.23997 4.64594L1.17273 4.41583L1.52483 4.41583L1.23997 4.64594Z" fill="#FBFFFC"/>
<path d="M1.11828 4.60181L1.29432 4.45955L1.40319 4.83187L1.11828 4.60181Z" fill="#FBFFFC"/>
<path d="M2.47984 4.45987L2.65588 4.60213L2.37096 4.83219L2.47984 4.45987Z" fill="#FBFFFC"/>
<path d="M2.60155 4.41522L2.5343 4.64533L2.24944 4.41522L2.60155 4.41522Z" fill="#FBFFFC"/>
<path d="M2.67661 4.53054H2.45898L2.5678 4.1582L2.67661 4.53054Z" fill="#FBFFFC"/>
<path d="M2.6013 4.64496L2.53406 4.41486L2.88616 4.41486L2.6013 4.64496Z" fill="#FBFFFC"/>
<path d="M2.4796 4.60181L2.65564 4.45955L2.76452 4.83187L2.4796 4.60181Z" fill="#FBFFFC"/>
<path d="M3.84117 4.45987L4.01721 4.60213L3.73229 4.83219L3.84117 4.45987Z" fill="#FBFFFC"/>
<path d="M3.96288 4.41522L3.89563 4.64533L3.61077 4.41522L3.96288 4.41522Z" fill="#FBFFFC"/>
<path d="M4.03794 4.53054H3.82031L3.92913 4.1582L4.03794 4.53054Z" fill="#FBFFFC"/>
<path d="M3.96263 4.64594L3.89538 4.41583L4.24749 4.41583L3.96263 4.64594Z" fill="#FBFFFC"/>
<path d="M3.84093 4.60181L4.01697 4.45955L4.12585 4.83187L3.84093 4.60181Z" fill="#FBFFFC"/>
<path d="M5.2025 4.45987L5.37854 4.60213L5.09362 4.83219L5.2025 4.45987Z" fill="#FBFFFC"/>
<path d="M5.32421 4.41522L5.25696 4.64533L4.9721 4.41522L5.32421 4.41522Z" fill="#FBFFFC"/>
<path d="M5.39927 4.53054H5.18164L5.29045 4.1582L5.39927 4.53054Z" fill="#FBFFFC"/>
<path d="M5.32396 4.64594L5.25671 4.41583L5.60882 4.41583L5.32396 4.64594Z" fill="#FBFFFC"/>
<path d="M5.20226 4.60181L5.3783 4.45955L5.48718 4.83187L5.20226 4.60181Z" fill="#FBFFFC"/>
<path d="M6.56187 4.45987L6.73791 4.60213L6.453 4.83219L6.56187 4.45987Z" fill="#FBFFFC"/>
<path d="M6.68358 4.41522L6.61633 4.64533L6.33147 4.41522L6.68358 4.41522Z" fill="#FBFFFC"/>
<path d="M6.75864 4.53054H6.54102L6.64983 4.1582L6.75864 4.53054Z" fill="#FBFFFC"/>
<path d="M6.68333 4.64594L6.61609 4.41583L6.96819 4.41583L6.68333 4.64594Z" fill="#FBFFFC"/>
<path d="M6.56164 4.60181L6.73768 4.45955L6.84655 4.83187L6.56164 4.60181Z" fill="#FBFFFC"/>
<path d="M7.92515 4.45987L8.10119 4.60213L7.81628 4.83219L7.92515 4.45987Z" fill="#FBFFFC"/>
<path d="M8.04686 4.41522L7.97962 4.64533L7.69476 4.41522L8.04686 4.41522Z" fill="#FBFFFC"/>
<path d="M8.12192 4.53054H7.9043L8.01311 4.1582L8.12192 4.53054Z" fill="#FBFFFC"/>
<path d="M8.04661 4.64496L7.97937 4.41486L8.33147 4.41486L8.04661 4.64496Z" fill="#FBFFFC"/>
<path d="M7.92492 4.60181L8.10096 4.45955L8.20983 4.83187L7.92492 4.60181Z" fill="#FBFFFC"/>
<path d="M1.7982 5.10929L1.97424 5.25154L1.68932 5.48161L1.7982 5.10929Z" fill="#FBFFFC"/>
<path d="M1.91991 5.06464L1.85266 5.29474L1.5678 5.06463L1.91991 5.06464Z" fill="#FBFFFC"/>
<path d="M1.99497 5.17996H1.77734L1.88616 4.80762L1.99497 5.17996Z" fill="#FBFFFC"/>
<path d="M1.91966 5.29535L1.85242 5.06525L2.20452 5.06525L1.91966 5.29535Z" fill="#FBFFFC"/>
<path d="M1.79796 5.25122L1.974 5.10897L2.08288 5.48129L1.79796 5.25122Z" fill="#FBFFFC"/>
<path d="M3.1605 5.10929L3.33654 5.25154L3.05163 5.48161L3.1605 5.10929Z" fill="#FBFFFC"/>
<path d="M3.28221 5.06464L3.21497 5.29474L2.93011 5.06463L3.28221 5.06464Z" fill="#FBFFFC"/>
<path d="M3.35728 5.17996H3.13965L3.24846 4.80762L3.35728 5.17996Z" fill="#FBFFFC"/>
<path d="M3.28197 5.29535L3.21472 5.06525L3.56683 5.06525L3.28197 5.29535Z" fill="#FBFFFC"/>
<path d="M3.16027 5.25122L3.33631 5.10897L3.44518 5.48129L3.16027 5.25122Z" fill="#FBFFFC"/>
<path d="M4.52085 5.10929L4.69689 5.25154L4.41198 5.48161L4.52085 5.10929Z" fill="#FBFFFC"/>
<path d="M4.64257 5.06464L4.57532 5.29474L4.29046 5.06463L4.64257 5.06464Z" fill="#FBFFFC"/>
<path d="M4.71763 5.17996H4.5L4.60881 4.80762L4.71763 5.17996Z" fill="#FBFFFC"/>
<path d="M4.64232 5.29535L4.57507 5.06525L4.92718 5.06525L4.64232 5.29535Z" fill="#FBFFFC"/>
<path d="M4.52062 5.25122L4.69666 5.10897L4.80553 5.48129L4.52062 5.25122Z" fill="#FBFFFC"/>
<path d="M5.88316 5.10929L6.0592 5.25154L5.77428 5.48161L5.88316 5.10929Z" fill="#FBFFFC"/>
<path d="M6.00487 5.06464L5.93762 5.29474L5.65276 5.06463L6.00487 5.06464Z" fill="#FBFFFC"/>
<path d="M6.07993 5.17996H5.8623L5.97112 4.80762L6.07993 5.17996Z" fill="#FBFFFC"/>
<path d="M6.00462 5.29535L5.93738 5.06525L6.28948 5.06525L6.00462 5.29535Z" fill="#FBFFFC"/>
<path d="M5.88292 5.25122L6.05896 5.10897L6.16784 5.48129L5.88292 5.25122Z" fill="#FBFFFC"/>
<path d="M7.24253 5.10929L7.41857 5.25154L7.13366 5.48161L7.24253 5.10929Z" fill="#FBFFFC"/>
<path d="M7.36425 5.06464L7.297 5.29474L7.01214 5.06463L7.36425 5.06464Z" fill="#FBFFFC"/>
<path d="M7.43931 5.17996H7.22168L7.33049 4.80762L7.43931 5.17996Z" fill="#FBFFFC"/>
<path d="M7.364 5.29535L7.29675 5.06525L7.64886 5.06525L7.364 5.29535Z" fill="#FBFFFC"/>
<path d="M7.2423 5.25122L7.41834 5.10897L7.52721 5.48129L7.2423 5.25122Z" fill="#FBFFFC"/>
<path d="M1.11851 5.75675L1.29455 5.89901L1.00964 6.12907L1.11851 5.75675Z" fill="#FBFFFC"/>
<path d="M1.24022 5.71307L1.17298 5.94318L0.888116 5.71307L1.24022 5.71307Z" fill="#FBFFFC"/>
<path d="M1.31528 5.82742H1.09766L1.20647 5.45508L1.31528 5.82742Z" fill="#FBFFFC"/>
<path d="M1.23997 5.94282L1.17273 5.71271L1.52483 5.71271L1.23997 5.94282Z" fill="#FBFFFC"/>
<path d="M1.11828 5.89868L1.29432 5.75643L1.40319 6.12875L1.11828 5.89868Z" fill="#FBFFFC"/>
<path d="M2.47984 5.75675L2.65588 5.89901L2.37096 6.12907L2.47984 5.75675Z" fill="#FBFFFC"/>
<path d="M2.60155 5.71307L2.5343 5.94318L2.24944 5.71307L2.60155 5.71307Z" fill="#FBFFFC"/>
<path d="M2.67661 5.82742H2.45898L2.5678 5.45508L2.67661 5.82742Z" fill="#FBFFFC"/>
<path d="M2.6013 5.94282L2.53406 5.71271L2.88616 5.71271L2.6013 5.94282Z" fill="#FBFFFC"/>
<path d="M2.4796 5.89868L2.65564 5.75643L2.76452 6.12875L2.4796 5.89868Z" fill="#FBFFFC"/>
<path d="M3.84117 5.75675L4.01721 5.89901L3.73229 6.12907L3.84117 5.75675Z" fill="#FBFFFC"/>
<path d="M3.96288 5.7121L3.89563 5.9422L3.61077 5.7121L3.96288 5.7121Z" fill="#FBFFFC"/>
<path d="M4.03794 5.82742H3.82031L3.92913 5.45508L4.03794 5.82742Z" fill="#FBFFFC"/>
<path d="M3.96263 5.94282L3.89538 5.71271L4.24749 5.71271L3.96263 5.94282Z" fill="#FBFFFC"/>
<path d="M3.84093 5.89868L4.01697 5.75643L4.12585 6.12875L3.84093 5.89868Z" fill="#FBFFFC"/>
<path d="M5.2025 5.75675L5.37854 5.89901L5.09362 6.12907L5.2025 5.75675Z" fill="#FBFFFC"/>
<path d="M5.32421 5.7121L5.25696 5.9422L4.9721 5.7121L5.32421 5.7121Z" fill="#FBFFFC"/>
<path d="M5.39927 5.82742H5.18164L5.29045 5.45508L5.39927 5.82742Z" fill="#FBFFFC"/>
<path d="M5.32396 5.94282L5.25671 5.71271L5.60882 5.71271L5.32396 5.94282Z" fill="#FBFFFC"/>
<path d="M5.20226 5.89868L5.3783 5.75643L5.48718 6.12875L5.20226 5.89868Z" fill="#FBFFFC"/>
<path d="M6.56187 5.75675L6.73791 5.89901L6.453 6.12907L6.56187 5.75675Z" fill="#FBFFFC"/>
<path d="M6.68358 5.7121L6.61633 5.9422L6.33147 5.7121L6.68358 5.7121Z" fill="#FBFFFC"/>
<path d="M6.75864 5.82742H6.54102L6.64983 5.45508L6.75864 5.82742Z" fill="#FBFFFC"/>
<path d="M6.68333 5.94282L6.61609 5.71271L6.96819 5.71271L6.68333 5.94282Z" fill="#FBFFFC"/>
<path d="M6.56164 5.89868L6.73768 5.75643L6.84655 6.12875L6.56164 5.89868Z" fill="#FBFFFC"/>
<path d="M7.92515 5.75675L8.10119 5.89901L7.81628 6.12907L7.92515 5.75675Z" fill="#FBFFFC"/>
<path d="M8.04686 5.7121L7.97962 5.9422L7.69476 5.7121L8.04686 5.7121Z" fill="#FBFFFC"/>
<path d="M8.12192 5.82742H7.9043L8.01311 5.45508L8.12192 5.82742Z" fill="#FBFFFC"/>
<path d="M8.04661 5.94282L7.97937 5.71271L8.33147 5.71271L8.04661 5.94282Z" fill="#FBFFFC"/>
<path d="M7.92492 5.89868L8.10096 5.75643L8.20983 6.12875L7.92492 5.89868Z" fill="#FBFFFC"/>
<path d="M0.492188 10.1484H18.5102V11.0714H0.492188V10.1484Z" fill="#FBFFFC"/>
<path d="M0.492188 11.0713H18.5102V11.9942H0.492188V11.0713Z" fill="#BA000D"/>
</g>
<defs>
<clipPath id="clip0_19_653">
<rect width="18" height="12" fill="white" transform="translate(0.5)"/>
</clipPath>
</defs>
</svg>
