<svg width="20" height="9" viewBox="0 0 20 9" fill="none" xmlns="http://www.w3.org/2000/svg">
<path d="M0.13195 0.134988C-0.0279284 0.29872 -0.0424628 0.554934 0.088347 0.735482L0.13195 0.787208L3.74058 4.48267L0.13195 8.17813C-0.0279284 8.34186 -0.0424628 8.59807 0.088347 8.77862L0.13195 8.83035C0.291829 8.99408 0.542013 9.00896 0.718311 8.875L0.768819 8.83035L4.69574 4.80878C4.85562 4.64504 4.87015 4.38883 4.73934 4.20828L4.69574 4.15656L0.768819 0.134988C0.592953 -0.0451179 0.307817 -0.0451179 0.13195 0.134988Z" fill="currentColor" fill-opacity="0.3"/>
<path d="M7.71813 0.134988C7.55825 0.29872 7.54372 0.554934 7.67453 0.735482L7.71813 0.787208L11.3268 4.48267L7.71813 8.17813C7.55825 8.34186 7.54372 8.59807 7.67453 8.77862L7.71813 8.83035C7.87801 8.99408 8.12819 9.00896 8.30449 8.875L8.355 8.83035L12.2819 4.80878C12.4418 4.64504 12.4563 4.38883 12.3255 4.20828L12.2819 4.15656L8.355 0.134988C8.17913 -0.0451179 7.894 -0.0451179 7.71813 0.134988Z" fill="currentColor" fill-opacity="0.6"/>
<path d="M15.3043 0.134988C15.1444 0.29872 15.1299 0.554934 15.2607 0.735482L15.3043 0.787208L18.9129 4.48267L15.3043 8.17813C15.1444 8.34186 15.1299 8.59807 15.2607 8.77862L15.3043 8.83035C15.4642 8.99408 15.7144 9.00896 15.8907 8.875L15.9412 8.83035L19.8681 4.80878C20.028 4.64504 20.0425 4.38883 19.9117 4.20828L19.8681 4.15656L15.9412 0.134988C15.7653 -0.0451179 15.4802 -0.0451179 15.3043 0.134988Z" fill="currentColor"/>
</svg>
