<svg width="10" height="7" viewBox="0 0 10 7" fill="none" xmlns="http://www.w3.org/2000/svg">
<path d="M1 3.15C0.8067 3.15 0.65 3.3067 0.65 3.5C0.65 3.6933 0.8067 3.85 1 3.85V3.15ZM9.24749 3.74749C9.38417 3.6108 9.38417 3.3892 9.24749 3.25251L7.0201 1.02513C6.88342 0.888443 6.66181 0.888443 6.52513 1.02513C6.38844 1.16181 6.38844 1.38342 6.52513 1.5201L8.50503 3.5L6.52513 5.4799C6.38844 5.61658 6.38844 5.83819 6.52513 5.97487C6.66181 6.11156 6.88342 6.11156 7.0201 5.97487L9.24749 3.74749ZM1 3.5V3.85H9V3.5V3.15H1V3.5Z" fill="currentColor"/>
</svg>
