<svg width="16" height="16" viewBox="0 0 16 16" fill="none" xmlns="http://www.w3.org/2000/svg">
<path d="M9.33318 14H6.66652M11.9999 5.33333C11.9999 4.27246 11.5784 3.25505 10.8283 2.5049C10.0781 1.75476 9.06072 1.33333 7.99985 1.33333C6.93898 1.33333 5.92157 1.75476 5.17142 2.5049C4.42128 3.25505 3.99985 4.27246 3.99985 5.33333C3.99985 7.39345 3.48016 8.80397 2.89963 9.73694C2.40993 10.5239 2.16509 10.9174 2.17407 11.0272C2.18401 11.1487 2.20976 11.1951 2.3077 11.2677C2.39616 11.3333 2.79491 11.3333 3.59242 11.3333H12.4073C13.2048 11.3333 13.6035 11.3333 13.692 11.2677C13.7899 11.1951 13.8157 11.1487 13.8256 11.0272C13.8346 10.9174 13.5898 10.5239 13.1001 9.73694C12.5195 8.80397 11.9999 7.39345 11.9999 5.33333Z" stroke="url(#paint0_linear_20_1769)" stroke-linecap="round" stroke-linejoin="round"/>
<defs>
<linearGradient id="paint0_linear_20_1769" x1="-0.502501" y1="-0.476195" x2="14.4911" y2="0.328885" gradientUnits="userSpaceOnUse">
<stop stop-color="#5433FF"/>
<stop offset="1" stop-color="#20BDFF"/>
</linearGradient>
</defs>
</svg>
