<!-- <svg width="18" height="18" viewBox="0 0 18 18" fill="none" xmlns="http://www.w3.org/2000/svg">
<path d="M1 6.44444C1 6.44444 1.09706 5.78392 3.90883 3.05025C6.72061 0.316582 11.2794 0.316582 14.0912 3.05025C15.0874 4.0188 15.7306 5.20056 16.0209 6.44444M1 6.44444V1.77778M1 6.44444H5.8M17 9.55556C17 9.55556 16.9029 10.2161 14.0912 12.9497C11.2794 15.6834 6.72061 15.6834 3.90883 12.9497C2.91261 11.9812 2.26936 10.7994 1.97906 9.55556M17 9.55556V14.2222M17 9.55556H12.2" stroke="url(#paint0_linear_20_1079)" stroke-linecap="round" stroke-linejoin="round"/>
<defs>
<linearGradient id="paint0_linear_20_1079" x1="-2.675" y1="-0.999999" x2="17.8814" y2="0.371296" gradientUnits="userSpaceOnUse">
<stop stop-color="#5433FF"/>
<stop offset="1" stop-color="#20BDFF"/>
</linearGradient>
</defs>
</svg> -->

<!-- <svg version="1.1" id="Layer_1" xmlns="http://www.w3.org/2000/svg" xmlns:xlink="http://www.w3.org/1999/xlink" viewBox="0 0 64 64" enable-background="new 0 0 64 64" xml:space="preserve" fill="url(#paint0_linear_20_1079)" transform="matrix(1, 0, 0, -1, 0, 0)">
<g id="SVGRepo_bgCarrier" stroke-width="0"></g>
<g id="SVGRepo_tracerCarrier" stroke-linecap="round" stroke-linejoin="round"></g>
<g id="SVGRepo_iconCarrier"> 
    <g> <path fill="none" stroke="url(#paint0_linear_20_1079)" stroke-width="2" stroke-miterlimit="10" d="M33,1c7.678,0,15.354,2.929,21.212,8.787 C64.91,20.484,65.841,37.248,57.003,49l-6.001,6.002"></path> </g>
    <g> <path fill="none" stroke="url(#paint0_linear_20_1079)" stroke-width="2" stroke-miterlimit="10" d="M31,63c-7.678,0-15.354-2.929-21.212-8.787 C-0.91,43.516-1.841,26.752,6.997,15l6.001-6.002"></path> </g> 
    <polyline fill="none" stroke="url(#paint0_linear_20_1079)" stroke-width="2" stroke-linejoin="bevel" stroke-miterlimit="10" points="51,44 51,55 62,55 "></polyline> 
    <polyline fill="none" stroke="url(#paint0_linear_20_1079)" stroke-width="2" stroke-linejoin="bevel" stroke-miterlimit="10" points="13,20 13,9 2,9 "></polyline> </g>
<defs>
<linearGradient id="paint0_linear_20_1079" x1="-2.675" y1="-0.999999" x2="17.8814" y2="0.371296" gradientUnits="userSpaceOnUse">
<stop stop-color="#5433FF"/>
<stop offset="1" stop-color="#20BDFF"/>
</linearGradient>
</defs>
</svg> -->

<svg version="1.1" id="Layer_1" xmlns="http://www.w3.org/2000/svg" xmlns:xlink="http://www.w3.org/1999/xlink" viewBox="-1.92 -1.92 67.84 67.84" enable-background="new 0 0 64 64" xml:space="preserve" fill="url(#paint0_linear_20_1079)" transform="matrix(1, 0, 0, -1, 0, 0)"><g id="SVGRepo_bgCarrier" stroke-width="0"></g><g id="SVGRepo_tracerCarrier" stroke-linecap="round" stroke-linejoin="round"></g><g id="SVGRepo_iconCarrier"> <g> <path fill="none" stroke="url(#paint0_linear_20_1079)" stroke-width="3.84" stroke-miterlimit="10" d="M33,1c7.678,0,15.354,2.929,21.212,8.787 C64.91,20.484,65.841,37.248,57.003,49l-6.001,6.002"></path> </g> <g> <path fill="none" stroke="url(#paint0_linear_20_1079)" stroke-width="3.84" stroke-miterlimit="10" d="M31,63c-7.678,0-15.354-2.929-21.212-8.787 C-0.91,43.516-1.841,26.752,6.997,15l6.001-6.002"></path> </g> <polyline fill="none" stroke="url(#paint0_linear_20_1079)" stroke-width="3.84" stroke-linejoin="bevel" stroke-miterlimit="10" points="51,44 51,55 62,55 "></polyline> <polyline fill="none" stroke="url(#paint0_linear_20_1079)" stroke-width="3.84" stroke-linejoin="bevel" stroke-miterlimit="10" points="13,20 13,9 2,9 "></polyline> </g><defs>
<linearGradient id="paint0_linear_20_1079" x1="-2.675" y1="-0.999999" x2="17.8814" y2="0.371296" gradientUnits="userSpaceOnUse">
<stop stop-color="#5433FF"/>
<stop offset="1" stop-color="#20BDFF"/>
</linearGradient>
</defs></svg>