<svg width="16" height="16" viewBox="0 0 16 16" fill="none" xmlns="http://www.w3.org/2000/svg">
<path fill-rule="evenodd" clip-rule="evenodd" d="M15.5762 2.75685C15.8135 3.38554 15.9395 4.05067 15.9485 4.72248C15.998 5.56744 15.9982 5.84378 16 7.98259L16 8.01242C16 10.1794 15.9885 10.4499 15.9502 11.3033C15.9369 11.9676 15.8116 12.6222 15.578 13.2432C15.3719 13.7733 15.0575 14.2548 14.6547 14.6569C14.2519 15.059 13.7696 15.373 13.2386 15.5787C12.6169 15.8116 11.9602 15.9373 11.2963 15.9503C10.4478 16 10.1697 16 8 16C5.8303 16 5.55931 15.9885 4.70369 15.9503C4.03854 15.9285 3.38199 15.7935 2.76233 15.5512C2.23107 15.3459 1.74853 15.0322 1.34557 14.6302C0.9426 14.2283 0.628056 13.7468 0.422035 13.2165C0.188361 12.5947 0.0630831 11.9401 0.0497557 11.2766C0 10.4287 0 10.1519 0 7.98581C0 5.81972 0.0115504 5.54917 0.0497557 4.69498C0.062304 4.03247 0.188211 3.37699 0.422035 2.75685C0.627711 2.22646 0.942021 1.74478 1.34485 1.34262C1.74769 0.940454 2.23017 0.626668 2.76144 0.421333C3.38281 0.188463 4.03923 0.0624939 4.7028 0.048786C5.55131 0 5.82941 0 7.99911 0C10.1688 0 10.4398 0.0106443 11.2945 0.048786C11.9584 0.0623939 12.6151 0.188364 13.2368 0.421333C13.768 0.626811 14.2504 0.940648 14.6532 1.34279C15.056 1.74494 15.3704 2.22655 15.5762 2.75685ZM3.88627 7.98137C3.88627 10.2468 5.72457 12.082 7.99378 12.082C9.08316 12.082 10.1279 11.65 10.8982 10.881C11.6685 10.112 12.1013 9.06894 12.1013 7.98137C12.1013 6.89381 11.6685 5.85078 10.8982 5.08176C10.1279 4.31273 9.08316 3.8807 7.99378 3.8807C5.72457 3.8807 3.88627 5.71593 3.88627 7.98137ZM11.8981 4.61267C12.0144 4.66068 12.139 4.68534 12.2648 4.68522C12.7934 4.68522 13.2217 4.25768 13.2217 3.72902C13.2217 3.6035 13.1969 3.47922 13.1488 3.36326C13.1007 3.24731 13.0302 3.14194 12.9413 3.05319C12.8524 2.96444 12.7468 2.89404 12.6307 2.84601C12.5145 2.79798 12.39 2.77326 12.2643 2.77326C12.1386 2.77326 12.0141 2.79798 11.898 2.84601C11.7818 2.89404 11.6763 2.96444 11.5874 3.05319C11.4985 3.14194 11.428 3.24731 11.3798 3.36326C11.3317 3.47922 11.307 3.6035 11.307 3.72902C11.3069 3.85462 11.3316 3.97901 11.3796 4.09508C11.4277 4.21114 11.4983 4.3166 11.5872 4.40542C11.6762 4.49423 11.7818 4.56466 11.8981 4.61267ZM10.6614 7.98174C10.6614 9.45287 9.46688 10.6455 7.9933 10.6455C6.51972 10.6455 5.32515 9.45287 5.32515 7.98174C5.32515 6.51061 6.51972 5.31803 7.9933 5.31803C9.46688 5.31803 10.6614 6.51061 10.6614 7.98174Z" fill="currentColor"/>
</svg>
