<svg width="17" height="17" viewBox="0 0 17 17" fill="none" xmlns="http://www.w3.org/2000/svg">
<path d="M3.54175 3.53416C3.54175 2.84625 3.54175 2.5023 3.68518 2.31269C3.81013 2.14752 4.00112 2.04531 4.20786 2.03296C4.44518 2.01879 4.73137 2.20958 5.30374 2.59117L12.7523 7.55685C13.2252 7.87214 13.4617 8.02979 13.5441 8.2285C13.6161 8.40222 13.6161 8.59746 13.5441 8.77118C13.4617 8.96988 13.2252 9.12753 12.7523 9.44283L5.30374 14.4085C4.73137 14.7901 4.44518 14.9809 4.20786 14.9667C4.00112 14.9544 3.81013 14.8522 3.68518 14.687C3.54175 14.4974 3.54175 14.1534 3.54175 13.4655V3.53416Z" fill="currentColor" stroke="currentColor" stroke-linecap="round" stroke-linejoin="round"/>
</svg>
