<svg width="20" height="20" viewBox="0 0 20 20" fill="none" xmlns="http://www.w3.org/2000/svg">
<path d="M12.573 15.7895H12.7017C13.7825 15.7895 14.3229 15.7895 14.7357 15.5791C15.0988 15.3941 15.394 15.0989 15.5791 14.7358C15.7894 14.323 15.7894 13.7826 15.7894 12.7018V7.29825C15.7894 6.21744 15.7894 5.67704 15.5791 5.26423C15.394 4.90111 15.0988 4.60588 14.7357 4.42086C14.3229 4.21053 13.7825 4.21053 12.7017 4.21053H7.29817C6.21737 4.21053 5.67696 4.21053 5.26415 4.42086C4.90103 4.60588 4.60581 4.90111 4.42079 5.26423C4.21045 5.67704 4.21045 6.21744 4.21045 7.29825V7.4269M9.67829 10.3216L13.2163 6.78363M13.2163 6.78363H9.99992M13.2163 6.78363V10M6.26893 15.7895H7.94144C8.66198 15.7895 9.02225 15.7895 9.29745 15.6492C9.53953 15.5259 9.73635 15.3291 9.8597 15.087C9.99992 14.8118 9.99992 14.4515 9.99992 13.731V12.0585C9.99992 11.3379 9.99992 10.9777 9.8597 10.7025C9.73635 10.4604 9.53953 10.2636 9.29745 10.1402C9.02225 10 8.66198 10 7.94144 10H6.26893C5.54839 10 5.18813 10 4.91292 10.1402C4.67084 10.2636 4.47402 10.4604 4.35067 10.7025C4.21045 10.9777 4.21045 11.3379 4.21045 12.0585V13.731C4.21045 14.4515 4.21045 14.8118 4.35067 15.087C4.47402 15.3291 4.67084 15.5259 4.91292 15.6492C5.18813 15.7895 5.54839 15.7895 6.26893 15.7895Z" stroke="currentColor" stroke-linecap="round" stroke-linejoin="round"/>
</svg>
