<svg width="20" height="20" viewBox="0 0 20 20" fill="none" xmlns="http://www.w3.org/2000/svg">
<g clip-path="url(#clip0_20_654)">
<path d="M2.5 7.59176V12.4001C2.5 14.1668 2.5 14.1668 4.16667 15.2918L8.75 17.9418C9.44167 18.3418 10.5667 18.3418 11.25 17.9418L15.8333 15.2918C17.5 14.1668 17.5 14.1668 17.5 12.4084V7.59176C17.5 5.83342 17.5 5.83342 15.8333 4.70842L11.25 2.05842C10.5667 1.65842 9.44167 1.65842 8.75 2.05842L4.16667 4.70842C2.5 5.83342 2.5 5.83342 2.5 7.59176Z" stroke="currentColor" stroke-width="1.25" stroke-linecap="round" stroke-linejoin="round"/>
<path d="M10 12.5C11.3807 12.5 12.5 11.3807 12.5 10C12.5 8.61929 11.3807 7.5 10 7.5C8.61929 7.5 7.5 8.61929 7.5 10C7.5 11.3807 8.61929 12.5 10 12.5Z" stroke="currentColor" stroke-width="1.25" stroke-linecap="round" stroke-linejoin="round"/>
</g>
<defs>
<clipPath id="clip0_20_654">
<rect width="20" height="20" fill="white"/>
</clipPath>
</defs>
</svg>
