<svg width="17" height="17" viewBox="0 0 17 17" fill="none" xmlns="http://www.w3.org/2000/svg">
<path d="M2.125 5.525C2.125 4.33489 2.125 3.73983 2.35661 3.28527C2.56034 2.88543 2.88543 2.56034 3.28527 2.35661C3.73983 2.125 4.33489 2.125 5.525 2.125H11.475C12.6651 2.125 13.2602 2.125 13.7147 2.35661C14.1146 2.56034 14.4397 2.88543 14.6434 3.28527C14.875 3.73983 14.875 4.33489 14.875 5.525V11.475C14.875 12.6651 14.875 13.2602 14.6434 13.7147C14.4397 14.1146 14.1146 14.4397 13.7147 14.6434C13.2602 14.875 12.6651 14.875 11.475 14.875H5.525C4.33489 14.875 3.73983 14.875 3.28527 14.6434C2.88543 14.4397 2.56034 14.1146 2.35661 13.7147C2.125 13.2602 2.125 12.6651 2.125 11.475V5.525Z" fill="currentColor" stroke="currentColor" stroke-linecap="round" stroke-linejoin="round"/>
</svg>
