<svg width="16" height="16" viewBox="0 0 16 16" fill="none" xmlns="http://www.w3.org/2000/svg">
<path d="M13.1652 3.33334C14.1101 4.64683 14.6666 6.25842 14.6666 8C14.6666 9.74158 14.1101 11.3532 13.1652 12.6667M10.4968 5.33334C11.024 6.08922 11.3333 7.0085 11.3333 8C11.3333 8.9915 11.024 9.91078 10.4968 10.6667M6.4228 2.91046L4.31234 5.02092C4.19704 5.13622 4.13939 5.19387 4.07211 5.2351C4.01246 5.27165 3.94743 5.29858 3.87941 5.31492C3.80268 5.33334 3.72115 5.33334 3.55809 5.33334H2.39992C2.02655 5.33334 1.83987 5.33334 1.69726 5.406C1.57182 5.46991 1.46983 5.5719 1.40591 5.69734C1.33325 5.83995 1.33325 6.02663 1.33325 6.4V9.6C1.33325 9.97337 1.33325 10.1601 1.40591 10.3027C1.46983 10.4281 1.57182 10.5301 1.69726 10.594C1.83987 10.6667 2.02655 10.6667 2.39992 10.6667H3.55809C3.72115 10.6667 3.80268 10.6667 3.87941 10.6851C3.94743 10.7014 4.01246 10.7284 4.07211 10.7649C4.13939 10.8061 4.19704 10.8638 4.31234 10.9791L6.4228 13.0895C6.70838 13.3751 6.85117 13.5179 6.97377 13.5276C7.08014 13.5359 7.18409 13.4929 7.25339 13.4117C7.33325 13.3182 7.33325 13.1163 7.33325 12.7124V3.28758C7.33325 2.88371 7.33325 2.68177 7.25339 2.58826C7.18409 2.50712 7.08014 2.46406 6.97377 2.47243C6.85117 2.48208 6.70838 2.62487 6.4228 2.91046Z" stroke="currentColor" stroke-linecap="round" stroke-linejoin="round"/>
</svg>
