<svg width="16" height="16" viewBox="0 0 16 16" fill="none" xmlns="http://www.w3.org/2000/svg">
<path d="M13.1654 3.33337C14.1103 4.64686 14.6668 6.25846 14.6668 8.00003C14.6668 9.74161 14.1103 11.3532 13.1654 12.6667M10.497 5.33337C11.0243 6.08926 11.3335 7.00853 11.3335 8.00003C11.3335 8.99153 11.0243 9.91081 10.497 10.6667M6.42304 2.91049L4.31258 5.02095C4.19728 5.13625 4.13963 5.1939 4.07235 5.23513C4.0127 5.27168 3.94767 5.29862 3.87965 5.31495C3.80293 5.33337 3.7214 5.33337 3.55834 5.33337H2.40016C2.02679 5.33337 1.84011 5.33337 1.6975 5.40603C1.57206 5.46994 1.47007 5.57193 1.40616 5.69737C1.3335 5.83998 1.3335 6.02666 1.3335 6.40003V9.60003C1.3335 9.9734 1.3335 10.1601 1.40616 10.3027C1.47007 10.4281 1.57206 10.5301 1.6975 10.594C1.84011 10.6667 2.02679 10.6667 2.40016 10.6667H3.55834C3.7214 10.6667 3.80293 10.6667 3.87965 10.6851C3.94767 10.7015 4.0127 10.7284 4.07235 10.7649C4.13963 10.8062 4.19728 10.8638 4.31258 10.9791L6.42304 13.0896C6.70862 13.3752 6.85142 13.518 6.97401 13.5276C7.08038 13.536 7.18433 13.4929 7.25363 13.4118C7.3335 13.3183 7.3335 13.1163 7.3335 12.7125V3.28761C7.3335 2.88374 7.3335 2.6818 7.25363 2.58829C7.18433 2.50715 7.08038 2.46409 6.97401 2.47246C6.85142 2.48211 6.70862 2.62491 6.42304 2.91049Z" stroke="url(#paint0_linear_21_5839)" stroke-linecap="round" stroke-linejoin="round"/>
<defs>
<linearGradient id="paint0_linear_21_5839" x1="-1.729" y1="0.891837" x2="15.3927" y2="2.09697" gradientUnits="userSpaceOnUse">
<stop stop-color="#5433FF"/>
<stop offset="1" stop-color="#20BDFF"/>
</linearGradient>
</defs>
</svg>
