<svg width="17" height="17" viewBox="0 0 17 17" fill="none" xmlns="http://www.w3.org/2000/svg">
<path d="M15.5834 6.02083H1.41675M1.41675 8.85416H3.92898C4.31161 8.85416 4.50293 8.85416 4.68793 8.88714C4.85213 8.91641 5.01232 8.96491 5.16518 9.03164C5.3374 9.10682 5.49659 9.21294 5.81496 9.42519L6.22687 9.6998C6.54524 9.91205 6.70443 10.0182 6.87665 10.0934C7.02951 10.1601 7.1897 10.2086 7.3539 10.2379C7.5389 10.2708 7.73022 10.2708 8.11285 10.2708H8.88731C9.26995 10.2708 9.46126 10.2708 9.64626 10.2379C9.81047 10.2086 9.97065 10.1601 10.1235 10.0934C10.2957 10.0182 10.4549 9.91205 10.7733 9.6998L11.1852 9.42519C11.5036 9.21295 11.6628 9.10682 11.835 9.03164C11.9878 8.96491 12.148 8.91641 12.3122 8.88714C12.4972 8.85416 12.6886 8.85416 13.0712 8.85416H15.5834M1.41675 5.1L1.41675 11.9C1.41675 12.6934 1.41675 13.0901 1.57116 13.3931C1.70698 13.6597 1.9237 13.8764 2.19026 14.0123C2.4933 14.1667 2.89001 14.1667 3.68341 14.1667L13.3167 14.1667C14.1102 14.1667 14.5069 14.1667 14.8099 14.0123C15.0765 13.8764 15.2932 13.6597 15.429 13.3931C15.5834 13.0901 15.5834 12.6934 15.5834 11.9V5.1C15.5834 4.30659 15.5834 3.90988 15.429 3.60684C15.2932 3.34028 15.0765 3.12356 14.8099 2.98774C14.5069 2.83333 14.1102 2.83333 13.3167 2.83333L3.68342 2.83333C2.89001 2.83333 2.4933 2.83333 2.19026 2.98774C1.9237 3.12356 1.70698 3.34028 1.57116 3.60684C1.41675 3.90988 1.41675 4.30659 1.41675 5.1Z" stroke="currentColor" stroke-width="1.0625" stroke-linecap="round" stroke-linejoin="round"/>
</svg>
